<svg width="72" height="51" viewBox="0 0 72 51" fill="none" xmlns="http://www.w3.org/2000/svg">
<path d="M5.28 18.848H11.064L10.344 23H0.264L3.216 6.2H7.512L5.28 18.848ZM19.4447 23.36C17.7487 23.36 16.2687 22.936 15.0047 22.088C13.7407 21.24 12.8447 20.128 12.3167 18.752C11.7887 17.376 11.6607 15.904 11.9327 14.336C12.3487 11.936 13.4767 9.92 15.3167 8.288C17.1567 6.656 19.3887 5.84 22.0127 5.84C24.5567 5.84 26.5327 6.736 27.9407 8.528C29.3647 10.304 29.8767 12.4 29.4767 14.816C29.0607 17.248 27.9407 19.28 26.1167 20.912C24.3087 22.544 22.0847 23.36 19.4447 23.36ZM16.8527 17.888C17.5407 18.736 18.5327 19.16 19.8287 19.16C21.1247 19.16 22.2847 18.736 23.3087 17.888C24.3487 17.024 24.9807 15.928 25.2047 14.6C25.4447 13.272 25.2127 12.184 24.5087 11.336C23.8047 10.472 22.8047 10.04 21.5087 10.04C20.2127 10.04 19.0607 10.472 18.0527 11.336C17.0607 12.184 16.4447 13.272 16.2047 14.6C15.9647 15.944 16.1807 17.04 16.8527 17.888ZM48.4136 13.376L48.1256 15.08C47.7096 17.624 46.6296 19.64 44.8856 21.128C43.1416 22.616 40.9976 23.36 38.4536 23.36C35.8456 23.36 33.8296 22.496 32.4056 20.768C30.9816 19.024 30.4776 16.888 30.8936 14.36C31.3096 11.88 32.4456 9.84 34.3016 8.24C36.1576 6.64 38.3336 5.84 40.8296 5.84C42.4776 5.84 43.9016 6.192 45.1016 6.896C46.3016 7.6 47.2216 8.568 47.8616 9.8L43.9256 11.912C43.2216 10.664 42.0456 10.04 40.3976 10.04C39.0856 10.04 37.9416 10.464 36.9656 11.312C36.0056 12.144 35.4056 13.24 35.1656 14.6C34.9256 15.944 35.1416 17.064 35.8136 17.96C36.4856 18.84 37.4936 19.28 38.8376 19.28C40.9016 19.28 42.3496 18.544 43.1816 17.072H39.2936L39.9416 13.376H48.4136ZM57.1088 23.36C55.4128 23.36 53.9328 22.936 52.6688 22.088C51.4048 21.24 50.5088 20.128 49.9808 18.752C49.4528 17.376 49.3248 15.904 49.5968 14.336C50.0128 11.936 51.1408 9.92 52.9808 8.288C54.8208 6.656 57.0528 5.84 59.6768 5.84C62.2208 5.84 64.1968 6.736 65.6048 8.528C67.0288 10.304 67.5408 12.4 67.1408 14.816C66.7248 17.248 65.6048 19.28 63.7808 20.912C61.9728 22.544 59.7488 23.36 57.1088 23.36ZM54.5168 17.888C55.2048 18.736 56.1968 19.16 57.4928 19.16C58.7888 19.16 59.9488 18.736 60.9728 17.888C62.0128 17.024 62.6448 15.928 62.8688 14.6C63.1088 13.272 62.8768 12.184 62.1728 11.336C61.4688 10.472 60.4688 10.04 59.1728 10.04C57.8768 10.04 56.7248 10.472 55.7168 11.336C54.7248 12.184 54.1088 13.272 53.8688 14.6C53.6288 15.944 53.8448 17.04 54.5168 17.888Z" fill="#FF006B"/>
<path d="M19.28 39.848H25.064L24.344 44H14.264L17.216 27.2H21.512L19.28 39.848ZM33.4447 44.36C31.7487 44.36 30.2687 43.936 29.0047 43.088C27.7407 42.24 26.8447 41.128 26.3167 39.752C25.7887 38.376 25.6607 36.904 25.9327 35.336C26.3487 32.936 27.4767 30.92 29.3167 29.288C31.1567 27.656 33.3887 26.84 36.0127 26.84C38.5567 26.84 40.5327 27.736 41.9407 29.528C43.3647 31.304 43.8767 33.4 43.4767 35.816C43.0607 38.248 41.9407 40.28 40.1167 41.912C38.3087 43.544 36.0847 44.36 33.4447 44.36ZM30.8527 38.888C31.5407 39.736 32.5327 40.16 33.8287 40.16C35.1247 40.16 36.2847 39.736 37.3087 38.888C38.3487 38.024 38.9807 36.928 39.2047 35.6C39.4447 34.272 39.2127 33.184 38.5087 32.336C37.8047 31.472 36.8047 31.04 35.5087 31.04C34.2127 31.04 33.0607 31.472 32.0527 32.336C31.0607 33.184 30.4447 34.272 30.2047 35.6C29.9647 36.944 30.1807 38.04 30.8527 38.888ZM46.7669 44L44.4869 27.2H48.9509L50.0309 39.008L55.2389 27.2H60.0869L51.9029 44H46.7669ZM71.2385 31.208H64.8785L64.4465 33.56H70.2545L69.5345 37.496H63.7745L63.3425 39.968H69.8225L69.1265 44H58.3265L61.2785 27.2H71.9585L71.2385 31.208Z" fill="#FF006B"/>
</svg>
