<svg width="55" height="55" viewBox="0 0 55 55" fill="none" xmlns="http://www.w3.org/2000/svg">
<path d="M48.1253 6.875H6.87533C4.35449 6.875 2.29199 8.9375 2.29199 11.4583V43.5417C2.29199 46.0625 4.35449 48.125 6.87533 48.125H48.1253C50.6462 48.125 52.7087 46.0625 52.7087 43.5417V11.4583C52.7087 8.9375 50.6462 6.875 48.1253 6.875ZM48.1253 43.5417H6.87533V11.4583H48.1253V43.5417ZM21.5649 36.5521L27.5003 30.6167L33.4357 36.5521L36.667 33.3208L30.7316 27.3854L36.667 21.45L33.4357 18.2187L27.5003 24.1542L21.5649 18.2187L18.3337 21.45L24.2691 27.3854L18.3337 33.3208L21.5649 36.5521Z" fill="black"/>
</svg>
