<svg width="125" height="127" viewBox="0 0 125 127" fill="none" xmlns="http://www.w3.org/2000/svg">
<path d="M123.5 63.5C123.5 97.7642 96.167 125.5 62.5 125.5C28.833 125.5 1.5 97.7642 1.5 63.5C1.5 29.2358 28.833 1.5 62.5 1.5C96.167 1.5 123.5 29.2358 123.5 63.5Z" stroke="black" stroke-width="3"/>
<path d="M85 36H40C37.25 36 35 38.75 35 42.1111V84.8889C35 88.25 37.25 91 40 91H85C87.75 91 90 88.25 90 84.8889V42.1111C90 38.75 87.75 36 85 36ZM85 84.8889H40V42.1111H85V84.8889ZM56.025 75.5694L62.5 67.6556L68.975 75.5694L72.5 71.2611L66.025 63.3472L72.5 55.4333L68.975 51.125L62.5 59.0389L56.025 51.125L52.5 55.4333L58.975 63.3472L52.5 71.2611L56.025 75.5694Z" fill="black"/>
</svg>
