<svg width="125" height="127" viewBox="0 0 125 127" fill="none" xmlns="http://www.w3.org/2000/svg">
<path d="M123.5 63.5C123.5 97.7642 96.167 125.5 62.5 125.5C28.833 125.5 1.5 97.7642 1.5 63.5C1.5 29.2358 28.833 1.5 62.5 1.5C96.167 1.5 123.5 29.2358 123.5 63.5Z" stroke="#D0BC57" stroke-width="3"/>
<g clip-path="url(#clip0)">
<path d="M38.8979 93.9966H34.0796L37.4867 90.6396C39.3238 88.8295 40.471 86.4753 40.7794 83.9214C35.9856 80.8217 32.4802 76.7437 30.6037 72.0669C28.7286 67.3937 28.493 62.2493 29.9224 57.1898C31.6374 51.1188 35.66 45.5853 41.249 41.6085C47.3223 37.2872 54.883 35.0029 63.1137 35.0029C73.4821 35.0029 82.2216 37.9381 88.3869 43.4908C93.9411 48.4933 97 55.241 97 62.4911C97 66.0134 96.2721 69.4407 94.8366 72.6777C93.351 76.0274 91.1757 79.01 88.3711 81.5424C82.1975 87.117 73.4635 90.0637 63.1135 90.0637C59.2713 90.0637 55.262 89.5583 51.6825 88.6309C48.2943 92.0556 43.703 93.9966 38.8979 93.9966V93.9966ZM63.1137 38.9358C46.6098 38.9358 36.483 48.6335 33.7677 58.2445C31.2019 67.3269 34.9843 75.9089 43.8855 81.2015L44.8801 81.7929L44.8495 82.937C44.7888 85.2015 44.2409 87.3827 43.2602 89.3544C45.6484 88.5583 47.8154 87.1149 49.5124 85.1395L50.3562 84.1572L51.6076 84.526C55.1193 85.5609 59.2055 86.1308 63.1137 86.1308C83.6534 86.1308 93.0084 73.8767 93.0084 62.4911C93.0084 56.3589 90.4107 50.642 85.6937 46.3937C80.2767 41.5148 72.4685 38.9358 63.1137 38.9358V38.9358Z" fill="#D0BC57"/>
</g>
<defs>
<clipPath id="clip0">
<rect width="68" height="67" fill="white" transform="translate(29 31)"/>
</clipPath>
</defs>
</svg>
