<svg width="133" height="135" viewBox="0 0 133 135" fill="none" xmlns="http://www.w3.org/2000/svg">
<g filter="url(#filter0_d)">
<path d="M127.5 63.5C127.5 97.7642 100.167 125.5 66.5 125.5C32.833 125.5 5.5 97.7642 5.5 63.5C5.5 29.2358 32.833 1.5 66.5 1.5C100.167 1.5 127.5 29.2358 127.5 63.5Z" stroke="#5B37B7" stroke-width="3"/>
</g>
<path d="M91.5374 35.6005C88.1101 32.2295 82.5599 32.2295 79.1326 35.6005L76.0274 38.6768L42.973 71.2278L42.9028 71.2975C42.8858 71.3143 42.8858 71.3321 42.8677 71.3321C42.8325 71.384 42.7798 71.4354 42.7453 71.4873C42.7453 71.5046 42.7272 71.5046 42.7272 71.5219C42.692 71.5738 42.675 71.6085 42.6393 71.6604C42.6223 71.6777 42.6223 71.6944 42.6048 71.7123C42.5872 71.7642 42.5696 71.7988 42.5515 71.8507C42.5515 71.8675 42.5345 71.8675 42.5345 71.8853L35.2008 93.6145C34.9856 94.2331 35.1492 94.9182 35.6217 95.3773C35.9537 95.7001 36.4016 95.8807 36.8675 95.8791C37.0579 95.8758 37.2467 95.8466 37.4289 95.7926L59.4654 88.5493C59.4824 88.5493 59.4824 88.5493 59.5005 88.5326C59.5559 88.5164 59.6092 88.4931 59.658 88.4628C59.6717 88.4612 59.6838 88.4552 59.6937 88.4461C59.7458 88.4114 59.8161 88.3763 59.8688 88.3417C59.9209 88.3076 59.9741 88.2557 60.0268 88.2211C60.0444 88.2033 60.0614 88.2033 60.0614 88.1865C60.0795 88.1692 60.1146 88.1524 60.1322 88.1173L96.2918 52.4895C99.713 49.1125 99.713 43.644 96.2918 40.2676L91.5374 35.6005ZM58.9039 84.4867L46.6929 72.4558L77.2557 42.3425L89.4667 54.3734L58.9039 84.4867ZM44.9729 75.6537L55.6407 86.1641L39.622 91.4191L44.9729 75.6537ZM93.8183 50.0691L91.9583 51.919L79.7467 39.887L81.6248 38.0376C83.679 36.0152 87.0086 36.0152 89.0634 38.0376L93.8353 42.7394C95.8741 44.7726 95.8664 48.0457 93.8183 50.0691Z" fill="#5B37B7"/>
<defs>
<filter id="filter0_d" x="0" y="0" width="133" height="135" filterUnits="userSpaceOnUse" color-interpolation-filters="sRGB">
<feFlood flood-opacity="0" result="BackgroundImageFix"/>
<feColorMatrix in="SourceAlpha" type="matrix" values="0 0 0 0 0 0 0 0 0 0 0 0 0 0 0 0 0 0 127 0"/>
<feOffset dy="4"/>
<feGaussianBlur stdDeviation="2"/>
<feColorMatrix type="matrix" values="0 0 0 0 0 0 0 0 0 0 0 0 0 0 0 0 0 0 0.25 0"/>
<feBlend mode="normal" in2="BackgroundImageFix" result="effect1_dropShadow"/>
<feBlend mode="normal" in="SourceGraphic" in2="effect1_dropShadow" result="shape"/>
</filter>
</defs>
</svg>
