<svg width="125" height="127" viewBox="0 0 125 127" fill="none" xmlns="http://www.w3.org/2000/svg">
<path d="M62.9999 93.2726C62.0319 93.2726 61.0985 92.927 60.3712 92.2993C57.6242 89.9326 54.9757 87.7085 52.639 85.7466L52.6271 85.7364C45.7764 79.9842 39.8605 75.0166 35.7444 70.1232C31.1432 64.6527 29 59.4659 29 53.7995C29 48.2942 30.9159 43.2153 34.3945 39.4975C37.9145 35.7358 42.7445 33.6641 47.9963 33.6641C51.9215 33.6641 55.5163 34.8868 58.6804 37.298C60.2773 38.5151 61.7247 40.0046 62.9999 41.7421C64.2757 40.0046 65.7226 38.5151 67.32 37.298C70.4841 34.8868 74.0789 33.6641 78.0041 33.6641C83.2554 33.6641 88.0859 35.7358 91.6059 39.4975C95.0845 43.2153 96.9999 48.2942 96.9999 53.7995C96.9999 59.4659 94.8572 64.6527 90.256 70.1227C86.1399 75.0166 80.2245 79.9837 73.3749 85.7354C71.034 87.7003 68.3814 89.928 65.6282 92.3003C64.9013 92.927 63.9675 93.2726 62.9999 93.2726V93.2726ZM47.9963 37.5888C43.8703 37.5888 40.08 39.2113 37.3226 42.1577C34.5242 45.1485 32.9828 49.2828 32.9828 53.7995C32.9828 58.5652 34.7804 62.8273 38.811 67.619C42.7066 72.2507 48.5011 77.116 55.2102 82.7496L55.2226 82.7598C57.5681 84.7294 60.227 86.9622 62.9942 89.3463C65.7781 86.9576 68.4411 84.7212 70.7912 82.7486C77.4998 77.115 83.2938 72.2507 87.1894 67.619C91.2194 62.8273 93.0171 58.5652 93.0171 53.7995C93.0171 49.2828 91.4757 45.1485 88.6773 42.1577C85.9204 39.2113 82.1296 37.5888 78.0041 37.5888C74.9816 37.5888 72.2065 38.5355 69.7562 40.4023C67.5726 42.0667 66.0515 44.1706 65.1597 45.6428C64.7011 46.3998 63.8938 46.8517 62.9999 46.8517C62.106 46.8517 61.2988 46.3998 60.8402 45.6428C59.9489 44.1706 58.4278 42.0667 56.2436 40.4023C53.7933 38.5355 51.0183 37.5888 47.9963 37.5888V37.5888Z" fill="#1892A6"/>
<path d="M123.5 63.5C123.5 97.7642 96.167 125.5 62.5 125.5C28.833 125.5 1.5 97.7642 1.5 63.5C1.5 29.2358 28.833 1.5 62.5 1.5C96.167 1.5 123.5 29.2358 123.5 63.5Z" stroke="#1892A6" stroke-width="3"/>
</svg>
