<svg width="55" height="55" viewBox="0 0 55 55" fill="none" xmlns="http://www.w3.org/2000/svg">
<path d="M48.7053 0H45.65V0.00879859C45.65 0.30049 45.5341 0.580235 45.3278 0.786492C45.1215 0.992749 44.8417 1.10862 44.55 1.10862H10.45C10.1583 1.10862 9.87847 0.992749 9.67218 0.786492C9.46589 0.580235 9.35 0.30049 9.35 0.00879859V0H2.2C1.61652 0 1.05695 0.231748 0.644365 0.644262C0.231785 1.05678 0 1.61627 0 2.19965L0 52.8004C0 53.3837 0.231785 53.9432 0.644365 54.3557C1.05695 54.7683 1.61652 55 2.2 55H52.8C53.3835 55 53.9431 54.7683 54.3556 54.3557C54.7682 53.9432 55 53.3837 55 52.8004V6.33774C55.027 6.28879 48.7102 0.0390438 48.7053 0Z" fill="#23475F"/>
<path d="M44.5721 29.1546H10.4281C10.1364 29.1546 9.8566 29.2705 9.65031 29.4767C9.44402 29.683 9.32812 29.9627 9.32812 30.2544V55.0005H45.6721V30.2544C45.6721 29.6462 45.1799 29.1546 44.5721 29.1546V29.1546ZM10.4958 23.6555H44.5045C44.7962 23.6555 45.076 23.5396 45.2823 23.3333C45.4886 23.1271 45.6045 22.8473 45.6045 22.5557V0.305664C45.5405 0.536215 45.4028 0.739492 45.2124 0.884461C45.022 1.02943 44.7894 1.10813 44.5501 1.10854H10.4501C9.94633 1.10854 9.52558 0.76759 9.39578 0.305664V22.5551C9.3957 22.6996 9.4241 22.8427 9.47935 22.9762C9.5346 23.1097 9.61561 23.231 9.71776 23.3332C9.81991 23.4353 9.9412 23.5164 10.0747 23.5717C10.2082 23.627 10.3513 23.6555 10.4958 23.6555V23.6555Z" fill="#1C3C50"/>
<path d="M12.1 30.7871H42.9C43.1917 30.7871 43.4715 30.903 43.6778 31.1092C43.8841 31.3155 44 31.5952 44 31.8869V52.2507C44 52.5424 43.8841 52.8222 43.6778 53.0284C43.4715 53.2347 43.1917 53.3505 42.9 53.3505H12.1C11.4928 53.3505 11 53.1328 11 52.5257V31.8869C11 31.5952 11.1159 31.3155 11.3222 31.1092C11.5285 30.903 11.8083 30.7871 12.1 30.7871V30.7871Z" fill="#EBF0F1"/>
<path d="M13.75 42.3525H41.25V42.9025H13.75V42.3525ZM13.75 47.8517H41.25V48.4016H13.75V47.8517Z" fill="#BCC4C8"/>
<path d="M3.85 46.2012H5.5C5.79174 46.2012 6.07153 46.317 6.27782 46.5233C6.48411 46.7296 6.6 47.0093 6.6 47.301V48.9507C6.6 49.2424 6.48411 49.5222 6.27782 49.7284C6.07153 49.9347 5.79174 50.0506 5.5 50.0506H3.85C3.55826 50.0506 3.27847 49.9347 3.07218 49.7284C2.86589 49.5222 2.75 49.2424 2.75 48.9507V47.301C2.75 47.0093 2.86589 46.7296 3.07218 46.5233C3.27847 46.317 3.55826 46.2012 3.85 46.2012V46.2012ZM49.5 46.2012H51.15C51.4417 46.2012 51.7215 46.317 51.9278 46.5233C52.1341 46.7296 52.25 47.0093 52.25 47.301V48.9507C52.25 49.2424 52.1341 49.5222 51.9278 49.7284C51.7215 49.9347 51.4417 50.0506 51.15 50.0506H49.5C49.2083 50.0506 48.9285 49.9347 48.7222 49.7284C48.5159 49.5222 48.4 49.2424 48.4 48.9507V47.301C48.4 47.0093 48.5159 46.7296 48.7222 46.5233C48.9285 46.317 49.2083 46.2012 49.5 46.2012Z" fill="#1C3C50"/>
<path d="M20.3496 1.09375V20.9049C20.3496 21.1966 20.4655 21.4763 20.6718 21.6826C20.8781 21.8888 21.1579 22.0047 21.4496 22.0047H42.8996C43.1913 22.0047 43.4711 21.8888 43.6774 21.6826C43.8837 21.4763 43.9996 21.1966 43.9996 20.9049V1.09375C43.9996 1.0976 20.3595 1.0976 20.3496 1.09375ZM40.6996 17.056C40.6996 17.2005 40.6712 17.3435 40.6159 17.4769C40.5606 17.6104 40.4796 17.7316 40.3774 17.8337C40.2753 17.9359 40.154 18.0169 40.0206 18.0722C39.8871 18.1274 39.7441 18.1559 39.5996 18.1559H36.2996C36.0079 18.1559 35.7281 18.04 35.5218 17.8337C35.3155 17.6275 35.1996 17.3477 35.1996 17.056V6.04296C35.1996 5.75127 35.3155 5.47152 35.5218 5.26527C35.7281 5.05901 36.0079 4.94313 36.2996 4.94313H39.5996C39.8913 4.94313 40.1711 5.05901 40.3774 5.26527C40.5837 5.47152 40.6996 5.75127 40.6996 6.04296V17.056Z" fill="#BCC4C8"/>
<path d="M42.9 30.7871H12.1C11.8083 30.7871 11.5285 30.903 11.3222 31.1092C11.1159 31.3155 11 31.5952 11 31.8869V37.4031H44V31.8869C44 31.5952 43.8841 31.3155 43.6778 31.1092C43.4715 30.903 43.1917 30.7871 42.9 30.7871Z" fill="#FF9D00"/>
</svg>
