<svg width="125" height="127" viewBox="0 0 125 127" fill="none" xmlns="http://www.w3.org/2000/svg">
<path d="M123.5 63.5C123.5 97.7642 96.167 125.5 62.5 125.5C28.833 125.5 1.5 97.7642 1.5 63.5C1.5 29.2358 28.833 1.5 62.5 1.5C96.167 1.5 123.5 29.2358 123.5 63.5Z" stroke="#3CB032" stroke-width="3"/>
<path d="M41.875 39.4375C40.9633 39.4375 40.089 39.7997 39.4443 40.4443C38.7997 41.089 38.4375 41.9633 38.4375 42.875V84.125C38.4375 85.0367 38.7997 85.911 39.4443 86.5557C40.089 87.2003 40.9633 87.5625 41.875 87.5625H83.125C84.0367 87.5625 84.911 87.2003 85.5557 86.5557C86.2003 85.911 86.5625 85.0367 86.5625 84.125V42.875C86.5625 41.9633 86.2003 41.089 85.5557 40.4443C84.911 39.7997 84.0367 39.4375 83.125 39.4375H67.6562C66.7446 39.4375 65.8702 39.7997 65.2256 40.4443C64.5809 41.089 64.2188 41.9633 64.2188 42.875V58.3438H71.0938C71.4341 58.3431 71.767 58.4436 72.0502 58.6324C72.3335 58.8212 72.5542 59.0899 72.6846 59.4043C72.8149 59.7188 72.849 60.0648 72.7824 60.3987C72.7158 60.7325 72.5516 61.039 72.3106 61.2794L63.7169 69.8731C63.5572 70.0332 63.3675 70.1602 63.1587 70.2468C62.9499 70.3335 62.7261 70.3781 62.5 70.3781C62.2739 70.3781 62.0501 70.3335 61.8413 70.2468C61.6324 70.1602 61.4428 70.0332 61.2831 69.8731L52.6894 61.2794C52.4484 61.039 52.2842 60.7325 52.2176 60.3987C52.151 60.0648 52.1851 59.7188 52.3154 59.4043C52.4458 59.0899 52.6665 58.8212 52.9498 58.6324C53.233 58.4436 53.5659 58.3431 53.9062 58.3438H60.7812V42.875C60.7812 41.0516 61.5056 39.303 62.7949 38.0136C64.0842 36.7243 65.8329 36 67.6562 36H83.125C84.9484 36 86.697 36.7243 87.9864 38.0136C89.2757 39.303 90 41.0516 90 42.875V84.125C90 85.9484 89.2757 87.697 87.9864 88.9864C86.697 90.2757 84.9484 91 83.125 91H41.875C40.0516 91 38.303 90.2757 37.0136 88.9864C35.7243 87.697 35 85.9484 35 84.125V42.875C35 41.0516 35.7243 39.303 37.0136 38.0136C38.303 36.7243 40.0516 36 41.875 36H50.4688C50.9246 36 51.3618 36.1811 51.6841 36.5034C52.0064 36.8257 52.1875 37.2629 52.1875 37.7188C52.1875 38.1746 52.0064 38.6118 51.6841 38.9341C51.3618 39.2564 50.9246 39.4375 50.4688 39.4375H41.875Z" fill="#3CB032"/>
</svg>
