<svg width="25" height="29" viewBox="0 0 25 29" fill="none" xmlns="http://www.w3.org/2000/svg">
<path d="M14.5435 23.8438V25.0528C14.5435 25.8509 13.9324 26.4979 13.1787 26.4979H11.3589C10.6061 26.4955 9.99639 25.8499 9.99414 25.0528V23.8438C11.4948 24.1713 13.0428 24.1713 14.5435 23.8438Z" fill="#FFE0B2"/>
<path d="M19.5481 28.4246H4.99023C4.99023 26.5624 6.416 25.0527 8.17476 25.0527H9.9945C9.99674 25.8498 10.6065 26.4954 11.3593 26.4978H13.179C13.9328 26.4978 14.5438 25.8508 14.5438 25.0527H16.3636C18.1223 25.0527 19.5481 26.5624 19.5481 28.4246Z" fill="#FFDC00"/>
<path d="M18.6167 26.0402C18.0206 25.406 17.2098 25.0504 16.3648 25.0527L15 25.0527C16.7588 25.0527 18.1845 26.5624 18.1845 28.4246H19.5493C19.5515 27.5299 19.2157 26.6713 18.6167 26.0402Z" fill="#FEC108"/>
<path d="M22.1503 15.7992H22.1458L21.9456 15.7125L21.9729 15.5536C21.7564 14.2567 21.6892 12.9369 21.7728 11.6229C20.8649 11.5291 20.1346 10.7916 20.0031 9.83585C18.611 9.5083 17.5692 8.18364 17.6465 6.84453C16.7962 7.89998 15.5625 8.52334 14.2527 8.55936C13.3701 8.59308 12.3647 8.2848 12.019 7.52372C10.9438 8.66186 9.26325 8.84864 7.98829 7.9717C7.51971 9.72025 5.57259 11.0112 3.65278 10.8474C3.46581 12.5342 3.11205 14.1955 2.59733 15.804L2.52909 15.8281C0.736781 14.2556 0.0211659 11.6911 0.718462 9.33971C1.24163 7.7164 0.955027 5.87633 1.92403 4.4457C2.37113 3.74231 2.9823 3.17318 3.69827 2.79349C4.46001 2.39753 5.34236 2.35222 6.13671 2.66825C6.5699 1.71655 7.37705 1.01523 8.34314 0.751112C9.33898 0.463462 10.3816 0.405964 11.4003 0.582519C12.2673 0.670114 13.0797 1.06963 13.7022 1.7145C14.5939 1.07385 15.8313 1.10756 16.9459 1.25207C18.1196 1.39658 19.348 1.66151 20.2078 2.42741C21.0205 3.10899 21.3963 4.22064 21.1768 5.29348C23.0288 6.29281 24.2881 8.20434 24.5342 10.3898C24.6535 12.5035 23.7569 14.5382 22.1503 15.7992V15.7992Z" fill="#91562D"/>
<path d="M24.5327 10.3901C24.2867 8.2046 23.0274 6.29307 21.1753 5.29374C21.3949 4.2209 21.019 3.10925 20.2063 2.42767C19.3465 1.66177 18.1182 1.39684 16.9444 1.25234C16.3469 1.16341 15.7417 1.14725 15.1406 1.20417C15.2886 1.21797 15.435 1.23403 15.5796 1.25234C16.7534 1.39684 17.9817 1.66177 18.8415 2.42767C19.6542 3.10925 20.0301 4.2209 19.8105 5.29374C21.6626 6.29307 22.9219 8.2046 23.1679 10.3901C23.2697 11.9512 22.7987 13.4937 21.8532 14.6964C21.8864 14.983 21.9237 15.2686 21.9715 15.5538L21.9442 15.7128L22.1443 15.7995H22.1489C23.7554 14.5384 24.652 12.5038 24.5327 10.3901Z" fill="#6D4122"/>
<path d="M23.5191 18.2368C23.1778 19.0938 22.2471 19.4983 21.4355 19.1424L21.0033 18.9593C19.8205 21.3774 17.4412 23.203 14.5433 23.8437C13.0426 24.1712 11.4946 24.1712 9.99395 23.8437C7.09148 23.203 4.71218 21.3726 3.5339 18.9545L3.10172 19.1424C2.29016 19.4983 1.35945 19.0938 1.01812 18.2368C0.686499 17.3775 1.06723 16.3954 1.8734 16.0306L2.5285 15.8283L2.59674 15.8042C3.11146 14.1957 3.46521 12.5344 3.65218 10.8476C5.572 11.0114 7.51911 9.72044 7.98769 7.97189C9.26266 8.84883 10.9432 8.66206 12.0184 7.52391C12.3641 8.28499 13.3696 8.59327 14.2521 8.55956C15.5619 8.52354 16.7956 7.90017 17.6459 6.84473C17.5686 8.18383 18.6104 9.50849 20.0025 9.83604C20.134 10.7918 20.8643 11.5293 21.7722 11.6231C21.6886 12.9371 21.7558 14.2569 21.9723 15.5537L21.945 15.7127L22.1452 15.7994H22.1498L22.6638 16.0306C23.47 16.3954 23.8507 17.3775 23.5191 18.2368V18.2368Z" fill="#FFE0B2"/>
<path d="M23.5207 16.9507C23.2477 16.2132 22.6968 16.0446 22.1513 15.7994H22.1468L21.9466 15.7127L21.9739 15.5537C21.7574 14.2569 21.6902 12.9371 21.7738 11.6231C20.8659 11.5293 20.1356 10.7918 20.0041 9.83604C18.612 9.50849 17.5702 8.18383 17.6475 6.84473C17.3143 7.27294 16.9078 7.63069 16.4492 7.89915C16.8376 8.88401 17.6548 9.60675 18.6393 9.83604C18.7708 10.7918 19.5011 11.5293 20.409 11.6231C20.3254 12.9371 20.3926 14.2569 20.6091 15.5537L20.5818 15.7127L20.782 15.7994H20.7865L21.3006 16.0306C21.8816 16.2876 22.2643 16.8838 22.2762 17.5504C22.2882 18.2169 21.927 18.828 21.3557 19.1082C21.9495 19.4113 22.6584 19.2956 23.1385 18.8172C23.6185 18.3388 23.7705 17.5966 23.5207 16.9507V16.9507Z" fill="#DFC49C"/>
<path d="M19.6382 18.959C18.2862 21.7229 15.2964 23.8241 11.5859 24.0649C15.7413 24.3323 19.2529 22.2017 20.847 19.2543C20.4257 19.2802 20.0062 19.1777 19.6382 18.959Z" fill="#DFC49C"/>
<path d="M8.17354 14.937C8.67605 14.937 9.08341 14.5057 9.08341 13.9736C9.08341 13.4416 8.67605 13.0103 8.17354 13.0103C7.67103 13.0103 7.26367 13.4416 7.26367 13.9736C7.26367 14.5057 7.67103 14.937 8.17354 14.937Z" fill="#3F51B5"/>
<path d="M16.363 14.937C16.8655 14.937 17.2729 14.5057 17.2729 13.9736C17.2729 13.4416 16.8655 13.0103 16.363 13.0103C15.8605 13.0103 15.4531 13.4416 15.4531 13.9736C15.4531 14.5057 15.8605 14.937 16.363 14.937Z" fill="#3F51B5"/>
<path d="M14.0102 21.1317C12.9516 21.8643 11.5839 21.8643 10.5254 21.1317C10.7537 20.3143 11.4628 19.7534 12.2678 19.7534C13.0728 19.7534 13.7819 20.3143 14.0102 21.1317Z" fill="#E91E63"/>
<path d="M15.455 17.8271V18.3088C15.4556 19.4473 14.9131 20.5091 14.0129 21.1316C13.7845 20.3142 13.0755 19.7533 12.2705 19.7533C11.4654 19.7533 10.7564 20.3142 10.5281 21.1316C9.6278 20.5091 9.08533 19.4473 9.08594 18.3088L9.08594 17.8271H15.455Z" fill="#AD1457"/>
<path d="M24.9871 10.3486C24.7479 8.12449 23.5219 6.15431 21.6861 5.04416C21.7917 3.90132 21.3471 2.77893 20.5033 2.05766C19.5197 1.18531 18.1795 0.919898 17.0003 0.77539C16.004 0.645815 14.7661 0.577896 13.7639 1.11884C13.1053 0.551101 12.3044 0.199506 11.4597 0.107281C10.3756 -0.0831391 9.26524 -0.0195059 8.20689 0.293697C7.25871 0.571958 6.43914 1.20729 5.9022 2.0803C5.09634 1.88104 4.25036 1.97963 3.50471 2.35968C2.71811 2.77299 2.04604 3.39499 1.55396 4.16507C0.895668 5.13616 0.762373 6.24406 0.632262 7.31534C0.57696 7.94883 0.461584 8.57481 0.287878 9.18383C-0.385044 11.4303 0.141121 13.8865 1.6636 15.6058C1.17821 15.8264 0.795576 16.2423 0.599962 16.7618C0.38842 17.2933 0.38842 17.8927 0.599962 18.4242C1.03932 19.5232 2.23251 20.0427 3.27497 19.5889L3.33593 19.5624C4.72584 21.9378 6.96277 23.6183 9.53939 24.2228V24.5735H8.17459C6.16551 24.5759 4.53739 26.2997 4.53513 28.427C4.53513 28.693 4.73881 28.9087 4.99006 28.9087H19.5479C19.7992 28.9087 20.0028 28.693 20.0028 28.427C20.0028 26.2988 18.3734 24.5735 16.3634 24.5735H14.9986V24.2228C17.5754 23.6185 19.8124 21.9375 21.2016 19.5614L21.2616 19.587C21.5092 19.6972 21.7751 19.754 22.0437 19.7541C22.8705 19.7544 23.6171 19.2305 23.9389 18.4242C24.1486 17.8973 24.15 17.3034 23.943 16.7753C23.7629 16.296 23.423 15.9034 22.9877 15.6718C24.3742 14.3045 25.108 12.3506 24.9871 10.3486V10.3486ZM1.14861 9.49404C1.34286 8.8239 1.47227 8.13459 1.53485 7.43673C1.65541 6.43963 1.76959 5.4984 2.29413 4.72383C2.69663 4.08949 3.24675 3.5757 3.8914 3.23203C4.53616 2.89472 5.28334 2.85206 5.95862 3.11401C6.07228 3.16601 6.20117 3.16601 6.31483 3.11401C6.42853 3.06288 6.5177 2.96498 6.56186 2.84282C6.94516 2.02968 7.64499 1.43456 8.47758 1.21373C9.41034 0.943827 10.3874 0.892214 11.3409 1.06248C12.1062 1.13594 12.8243 1.48538 13.3754 2.05236C13.5292 2.22012 13.7745 2.24672 13.9572 2.11546C14.7547 1.54273 15.9439 1.61113 16.8934 1.733C17.8792 1.85438 19.1135 2.08512 19.9146 2.7985C20.5895 3.36275 20.9073 4.28088 20.7367 5.17325C20.683 5.38974 20.7772 5.61684 20.9641 5.72142C22.682 6.64174 23.852 8.40998 24.0822 10.4338C24.1808 12.1483 23.5461 13.8189 22.3535 14.9834C22.2016 13.8825 22.1593 12.7676 22.2275 11.6573C22.2432 11.4023 22.0681 11.1786 21.8285 11.1477C21.1369 11.0808 20.5743 10.5296 20.4578 9.80474C20.4446 9.59112 20.2998 9.41234 20.1025 9.36591C18.9356 9.09135 18.0375 7.97382 18.1008 6.87411C18.1128 6.66483 17.9956 6.47133 17.8109 6.39563C17.6263 6.31993 17.4166 6.3794 17.2924 6.54271C16.5236 7.48754 15.414 8.04514 14.2366 8.07835C13.5442 8.10725 12.6848 7.87748 12.4296 7.31534C12.3632 7.1691 12.2318 7.06804 12.0799 7.0465C11.928 7.02495 11.7761 7.08581 11.6758 7.20841C10.7563 8.16299 9.33552 8.31713 8.25239 7.57979C8.1319 7.48899 7.97724 7.46586 7.83772 7.51779C7.69819 7.56971 7.59121 7.69021 7.55088 7.84087C7.14508 9.35387 5.38222 10.5181 3.68941 10.3674C3.44563 10.349 3.23093 10.5359 3.20081 10.7927C3.04164 12.2144 2.76039 13.6177 2.36055 14.9853C1.04102 13.5259 0.576578 11.4215 1.14861 9.49404V9.49404ZM18.2918 26.3832C18.6942 26.8065 18.9607 27.3529 19.0539 27.9453H5.48139C5.70494 26.5557 6.84144 25.5387 8.17277 25.5368H9.60399C9.8108 26.385 10.5319 26.9786 11.3591 26.9819H13.1789C14.0078 26.985 14.7315 26.3884 14.9322 25.5368H16.3634C17.0871 25.5351 17.7815 25.8399 18.2918 26.3832ZM14.0887 25.046V25.0552V25.0614C14.0855 25.591 13.6791 26.0186 13.1789 26.0185H11.3591C10.8566 26.0185 10.4493 25.5872 10.4493 25.0552V24.4135C11.6543 24.6236 12.8837 24.6236 14.0887 24.4135V25.046ZM23.1005 18.0518C22.8571 18.6582 22.2008 18.9477 21.6229 18.7035C21.7202 18.4743 21.8098 18.2435 21.8835 18.0113C21.9355 17.8479 21.9011 17.6675 21.7933 17.5381C21.6856 17.4087 21.5208 17.3501 21.3611 17.3842C21.2015 17.4183 21.0711 17.5401 21.0192 17.7035C20.9067 18.0533 20.7684 18.3931 20.6056 18.7199C19.1662 21.6891 15.893 23.6077 12.269 23.6077C8.64499 23.6077 5.37175 21.6891 3.9278 18.7161C3.76651 18.3908 3.62961 18.0525 3.51836 17.7045C3.43833 17.4518 3.17996 17.3156 2.94127 17.4003C2.70258 17.4851 2.57396 17.7586 2.65398 18.0113C2.72768 18.2426 2.81685 18.4733 2.91375 18.7026C2.33603 18.9466 1.68009 18.6568 1.43749 18.0504C1.3204 17.7547 1.32188 17.4214 1.44159 17.127C1.54819 16.8386 1.75913 16.6073 2.02754 16.4844L2.72541 16.2662C2.86779 16.2217 2.98072 16.1064 3.02794 15.9574C3.50717 14.457 3.85022 12.9116 4.05245 11.3423C5.79915 11.3223 7.39723 10.2976 8.22327 8.66794C9.45055 9.23087 10.8668 9.07031 11.9537 8.24501C12.5962 8.82172 13.4272 9.10757 14.2671 9.04077C15.3756 9.00471 16.4439 8.59309 17.3151 7.8664C17.6765 8.99302 18.5258 9.8681 19.5993 10.22C19.8361 11.0856 20.4771 11.7613 21.2958 12.008C21.2478 13.1941 21.3192 14.3822 21.5087 15.5523L21.4955 15.6289C21.4577 15.8515 21.5713 16.0719 21.7684 16.1588L22.4881 16.4772C23.0622 16.7387 23.3336 17.438 23.0991 18.0513L23.1005 18.0518Z" fill="black"/>
<path d="M9.54014 13.9739C9.54014 13.1758 8.9291 12.5288 8.17534 12.5288C7.42159 12.5288 6.81055 13.1758 6.81055 13.9739C6.81055 14.772 7.42159 15.419 8.17534 15.419C8.9291 15.419 9.54014 14.772 9.54014 13.9739ZM8.17534 14.4556C7.92409 14.4556 7.72041 14.2399 7.72041 13.9739C7.72041 13.7079 7.92409 13.4922 8.17534 13.4922C8.4266 13.4922 8.63028 13.7079 8.63028 13.9739C8.63028 14.2399 8.4266 14.4556 8.17534 14.4556Z" fill="black"/>
<path d="M16.3648 12.5288C15.611 12.5288 15 13.1758 15 13.9739C15 14.772 15.611 15.419 16.3648 15.419C17.1186 15.419 17.7296 14.772 17.7296 13.9739C17.7296 13.1758 17.1186 12.5288 16.3648 12.5288ZM16.3648 14.4556C16.1135 14.4556 15.9099 14.2399 15.9099 13.9739C15.9099 13.7079 16.1135 13.4922 16.3648 13.4922C16.616 13.4922 16.8197 13.7079 16.8197 13.9739C16.8197 14.2399 16.616 14.4556 16.3648 14.4556Z" fill="black"/>
<path d="M15.4529 17.3457H9.08384C8.83259 17.3457 8.62891 17.5614 8.62891 17.8274V18.3091C8.62891 20.4373 10.2583 22.1626 12.2684 22.1626C14.2784 22.1626 15.9078 20.4373 15.9078 18.3091V17.8274C15.9078 17.5614 15.7042 17.3457 15.4529 17.3457ZM11.1133 20.9237C11.3584 20.4966 11.7963 20.2358 12.2684 20.2358C12.7404 20.2358 13.1783 20.4966 13.4234 20.9237C12.6925 21.2911 11.8443 21.2911 11.1133 20.9237V20.9237ZM14.1714 20.377C13.7567 19.689 13.0392 19.2725 12.2684 19.2725C11.4975 19.2725 10.78 19.689 10.3654 20.377C9.83691 19.8345 9.53867 19.0884 9.53877 18.3091H14.998C14.9981 19.0884 14.6998 19.8345 14.1714 20.377V20.377Z" fill="black"/>
<path d="M11.8124 16.3823H12.7222C12.9735 16.3823 13.1772 16.1667 13.1772 15.9006C13.1772 15.6346 12.9735 15.4189 12.7222 15.4189H11.8124C11.5611 15.4189 11.3574 15.6346 11.3574 15.9006C11.3574 16.1667 11.5611 16.3823 11.8124 16.3823Z" fill="black"/>
<path d="M7.26548 12.0469H8.63028C8.88153 12.0469 9.08521 11.8312 9.08521 11.5652C9.08521 11.2992 8.88153 11.0835 8.63028 11.0835H7.26548C7.01423 11.0835 6.81055 11.2992 6.81055 11.5652C6.81055 11.8312 7.01423 12.0469 7.26548 12.0469Z" fill="black"/>
<path d="M17.2728 11.0835H15.9081C15.6568 11.0835 15.4531 11.2992 15.4531 11.5652C15.4531 11.8312 15.6568 12.0469 15.9081 12.0469H17.2728C17.5241 12.0469 17.7278 11.8312 17.7278 11.5652C17.7278 11.2992 17.5241 11.0835 17.2728 11.0835Z" fill="black"/>
</svg>
