<svg width="21" height="20" viewBox="0 0 21 20" fill="none" xmlns="http://www.w3.org/2000/svg">
<g clip-path="url(#clip0)">
<path d="M20.125 8.855C19.642 8.855 19.25 9.21564 19.25 9.66C19.25 14.0988 15.3247 17.71 10.5 17.71C5.67525 17.71 1.75 14.0988 1.75 9.66C1.75 5.22123 5.67525 1.61 10.5 1.61C12.8489 1.61 15.0539 2.45445 16.709 3.98797C17.0494 4.30313 17.6037 4.30514 17.9463 3.992C18.2893 3.67885 18.291 3.16888 17.9506 2.85332C15.9648 1.0135 13.3184 0 10.5 0C4.71012 0 0 4.33331 0 9.66C0 14.9867 4.71012 19.32 10.5 19.32C16.2894 19.32 21 14.9867 21 9.66C21 9.21564 20.608 8.855 20.125 8.855Z" fill="#959191"/>
<path d="M11.7371 9.65983L13.7435 7.81397C14.0852 7.49962 14.0852 6.99006 13.7435 6.67571C13.4018 6.36135 12.8479 6.36135 12.5063 6.67571L10.4999 8.52157L8.49351 6.67571C8.15226 6.36135 7.59752 6.36135 7.25627 6.67571C6.91458 6.99006 6.91458 7.49962 7.25627 7.81397L9.26264 9.65983L7.25627 11.5057C6.91458 11.82 6.91458 12.3296 7.25627 12.644C7.42689 12.8013 7.65089 12.8798 7.87489 12.8798C8.09889 12.8798 8.32289 12.8013 8.49351 12.644L10.4999 10.7981L12.5063 12.644C12.6773 12.8013 12.9009 12.8798 13.1249 12.8798C13.3489 12.8798 13.5724 12.8013 13.7435 12.644C14.0852 12.3296 14.0852 11.82 13.7435 11.5057L11.7371 9.65983Z" fill="#959191"/>
</g>
<defs>
<clipPath id="clip0">
<rect width="21" height="19.32" fill="white"/>
</clipPath>
</defs>
</svg>
