<svg width="25" height="30" viewBox="0 0 25 30" fill="none" xmlns="http://www.w3.org/2000/svg">
<path d="M14.8151 24.2598V25.4901C14.8151 26.3023 14.1933 26.9607 13.4262 26.9607H11.5744C10.8083 26.9583 10.1878 26.3013 10.1855 25.4901V24.2598C11.7127 24.5931 13.288 24.5931 14.8151 24.2598Z" fill="#FFE0B2"/>
<path d="M19.9063 28.9215H5.0918C5.0918 27.0265 6.5427 25.4902 8.33247 25.4902H10.1843C10.1866 26.3014 10.807 26.9584 11.5731 26.9608H13.425C14.192 26.9608 14.8138 26.3024 14.8138 25.4902H16.6656C18.4554 25.4902 19.9063 27.0265 19.9063 28.9215Z" fill="#FFDC00"/>
<path d="M18.9578 26.4951C18.3512 25.8497 17.5261 25.4879 16.6662 25.4902L15.2773 25.4902C17.0671 25.4902 18.518 27.0265 18.518 28.9215H19.9069C19.9091 28.011 19.5674 27.1374 18.9578 26.4951Z" fill="#FEC108"/>
<path d="M20.4207 20.8241C18.9683 22.6023 16.9939 23.8124 14.8143 24.2603C13.2872 24.5936 11.7119 24.5936 10.1848 24.2603C8.00512 23.8124 6.03074 22.6023 4.5784 20.8241C4.19216 18.1487 4.04799 15.4404 4.14785 12.736C4.15896 12.4287 4.30438 12.1443 4.54136 11.9664C5.56751 11.2317 6.71581 10.7094 7.92555 10.4273C8.32832 7.12831 11.0181 5.45187 11.106 5.39795C11.0644 5.46167 10.2542 6.66263 10.4486 9.96158C11.1297 9.88052 11.8142 9.83635 12.4995 9.82923C12.4995 9.82923 17.6337 9.78511 20.4577 11.9664C20.6947 12.1443 20.8401 12.4287 20.8512 12.736C20.9511 15.4404 20.8069 18.1487 20.4207 20.8241Z" fill="#FFE0B2"/>
<path d="M20.8508 12.7355C20.8397 12.4281 20.6943 12.1437 20.4573 11.9659C17.6333 9.78456 12.4991 9.82868 12.4991 9.82868C12.4991 9.82868 12.2417 9.82868 11.8195 9.84878C13.3255 9.92378 16.8861 10.2801 19.0684 11.9659C19.3054 12.1437 19.4508 12.4281 19.4619 12.7355C19.5618 15.4399 19.4176 18.1482 19.0314 20.8236C17.5791 22.6018 15.6047 23.8119 13.425 24.2598C12.8906 24.3755 12.3492 24.4508 11.8047 24.4852C12.0362 24.4999 12.2676 24.5098 12.4991 24.5098C13.2767 24.5097 14.0523 24.4259 14.8139 24.2598C16.9935 23.8119 18.9679 22.6018 20.4203 20.8236C20.8065 18.1482 20.9507 15.4399 20.8508 12.7355V12.7355Z" fill="#DFC49C"/>
<path d="M11.1113 20.5884H13.889V21.0786C13.889 21.8907 13.2672 22.5491 12.5002 22.5491C11.7331 22.5491 11.1113 21.8907 11.1113 21.0786V20.5884Z" fill="#EF314C"/>
<path d="M8.33216 20.5883H7.8692C7.61352 20.5883 7.40625 20.3688 7.40625 20.0981C7.40625 19.8274 7.61352 19.6079 7.8692 19.6079H8.33216C8.58784 19.6079 8.79511 19.8274 8.79511 20.0981C8.79511 20.3688 8.58784 20.5883 8.33216 20.5883Z" fill="#E91E63"/>
<path d="M17.129 20.5883H16.6661C16.4104 20.5883 16.2031 20.3688 16.2031 20.0981C16.2031 19.8274 16.4104 19.6079 16.6661 19.6079H17.129C17.3847 19.6079 17.592 19.8274 17.592 20.0981C17.592 20.3688 17.3847 20.5883 17.129 20.5883Z" fill="#E91E63"/>
<path d="M22.0412 4.21606L21.9579 4.35331L21.0968 5.71603L21.0134 5.84348C20.9455 5.95231 20.8394 6.02798 20.7186 6.05374C20.5979 6.0795 20.4724 6.05323 20.3699 5.98073L18.8329 4.88762C18.6211 4.73618 18.5634 4.43272 18.7033 4.20626L18.782 4.07881H18.7866L19.6524 2.71119L19.7357 2.57884C19.8043 2.4708 19.9108 2.39613 20.0315 2.3713C20.1522 2.34647 20.2773 2.37352 20.3792 2.44649L21.9162 3.5347C22.0182 3.6074 22.0888 3.72009 22.1122 3.84792C22.1357 3.97575 22.1101 4.10821 22.0412 4.21606V4.21606Z" fill="#E91E63"/>
<path d="M19.6531 2.7113L18.7874 4.07892H18.7828C18.176 4.30791 17.5125 4.30444 16.9078 4.06912C16.6573 3.99583 16.4474 3.81442 16.3294 3.56922C16.2114 3.32402 16.1962 3.0376 16.2875 2.77993C16.4548 2.39673 16.7339 2.08056 17.0838 1.87799C17.0903 1.75098 17.1137 1.62557 17.1532 1.50545C17.2448 1.23026 17.3846 0.975819 17.5652 0.755462C17.7558 0.566821 18.0126 0.472045 18.2727 0.494443C18.5327 0.51684 18.7717 0.654333 18.9309 0.873107C19.3696 1.37603 19.6255 2.02738 19.6531 2.7113V2.7113Z" fill="#E91E63"/>
<path d="M24.5373 13.2895C24.5428 17.3226 22.7451 21.1205 19.6902 23.5295C20.0353 22.6618 20.2808 21.7533 20.4217 20.8237C20.8079 18.1483 20.9521 15.44 20.8522 12.7356C20.8411 12.4283 20.6957 12.1439 20.4587 11.966C17.6347 9.78469 12.5005 9.82881 12.5005 9.82881C11.8152 9.83592 11.1307 9.8801 10.4496 9.96116C10.2552 6.6622 11.0654 5.46125 11.107 5.39752C11.0191 5.45144 8.32932 7.12788 7.92655 10.4268C6.71681 10.709 5.56851 11.2313 4.54236 11.966C4.30538 12.1439 4.15995 12.4283 4.14885 12.7356C4.04899 15.44 4.19316 18.1483 4.5794 20.8237C4.72023 21.7533 4.9658 22.6618 5.31086 23.5295C0.416215 19.6828 -0.996486 12.5728 2.0194 6.96392C5.03529 1.35505 11.5308 -0.987732 17.1532 1.50545C17.1137 1.62557 17.0903 1.75098 17.0838 1.87799C16.7339 2.08056 16.4548 2.39673 16.2875 2.77993C16.1962 3.0376 16.2115 3.32402 16.3294 3.56922C16.4474 3.81442 16.6573 3.99583 16.9078 4.06912C17.5125 4.30444 18.176 4.30791 18.7828 4.07892L18.7041 4.20637C18.5642 4.43283 18.6219 4.73629 18.8337 4.88773L20.3707 5.98085C20.4732 6.05334 20.5987 6.07962 20.7194 6.05386C20.8402 6.0281 20.9463 5.95242 21.0142 5.84359L21.0976 5.71615C21.1257 6.3985 21.3817 7.04814 21.8198 7.54944C21.9784 7.76756 22.2166 7.90469 22.4757 7.92708C22.7349 7.94948 22.9909 7.85507 23.1809 7.66709C23.2096 7.63329 23.2359 7.59724 23.2596 7.55924C24.1035 9.33699 24.5412 11.2998 24.5373 13.2895V13.2895Z" fill="#A0522D"/>
<path d="M15.7629 1.50581C15.7234 1.62593 15.7001 1.75134 15.6935 1.87835C15.3437 2.08092 15.0645 2.39709 14.8972 2.78029C14.806 3.03796 14.8212 3.32438 14.9392 3.56958C15.0572 3.81479 15.2671 3.99619 15.5176 4.06948C16.055 4.27028 16.6364 4.29841 17.1888 4.15036C17.0963 4.12732 17.0037 4.10428 16.9064 4.06948C16.6559 3.99619 16.446 3.81479 16.328 3.56958C16.2101 3.32438 16.1948 3.03796 16.2861 2.78029C16.4534 2.39709 16.7325 2.08092 17.0824 1.87835C17.0889 1.75134 17.1123 1.62593 17.1518 1.50581C15.6788 0.850476 14.0969 0.51381 12.4991 0.515632C12.2676 0.515632 12.0362 0.524456 11.8047 0.538181C13.1665 0.619509 14.5053 0.946766 15.7629 1.50581V1.50581Z" fill="#783E22"/>
<path d="M17.3146 4.20655C17.1747 4.43301 17.2324 4.73647 17.4443 4.88791L18.9813 5.98102C19.0837 6.05352 19.2092 6.0798 19.33 6.05404C19.4507 6.02828 19.5568 5.9526 19.6248 5.84377L19.7081 5.71632C19.7363 6.39868 19.9922 7.04832 20.4303 7.54962C20.5889 7.76774 20.8271 7.90486 21.0863 7.92726C21.3454 7.94966 21.6014 7.85525 21.7914 7.66726C21.8132 7.6403 21.8331 7.61236 21.8525 7.58344C21.8419 7.57119 21.8294 7.56236 21.8192 7.54962C21.3811 7.04832 21.1251 6.39868 21.097 5.71632L21.0136 5.84377C20.9457 5.9526 20.8396 6.02828 20.7188 6.05404C20.598 6.0798 20.4726 6.05352 20.3701 5.98102L18.8331 4.88791C18.6213 4.73647 18.5636 4.43301 18.7035 4.20655L18.7822 4.0791C18.3164 4.25728 17.8128 4.29362 17.3285 4.184L17.3146 4.20655Z" fill="#783E22"/>
<path d="M23.2588 7.55957C23.2352 7.59757 23.2089 7.63362 23.1801 7.66741C23.0065 7.84233 22.7744 7.93704 22.5349 7.9307C22.2953 7.92436 22.0679 7.81748 21.9028 7.63359C24.0311 12.2036 23.3946 17.6752 20.2825 21.5617C20.1472 22.237 19.9485 22.8963 19.6895 23.5298C24.3727 19.8226 25.8761 13.0961 23.2588 7.55957V7.55957Z" fill="#783E22"/>
<path d="M24.4614 5.64712C24.2938 6.02889 24.0146 6.34342 23.6651 6.54416C23.6313 6.91875 23.489 7.27313 23.2577 7.55884C23.2341 7.59684 23.2078 7.63289 23.179 7.66668C22.9891 7.85467 22.733 7.94908 22.4739 7.92668C22.2147 7.90428 21.9765 7.76716 21.8179 7.54904C21.3798 7.04774 21.1239 6.3981 21.0957 5.71575L21.9568 4.35303L21.9614 4.34813C22.5674 4.1137 23.2327 4.11718 23.8364 4.35793C24.0878 4.43013 24.2988 4.61108 24.4177 4.85642C24.5367 5.10175 24.5525 5.38878 24.4614 5.64712V5.64712Z" fill="#E91E63"/>
<path d="M12.0372 19.1176H12.9631C13.2188 19.1176 13.426 18.8981 13.426 18.6274C13.426 18.3567 13.2188 18.1372 12.9631 18.1372H12.0372C11.7815 18.1372 11.5742 18.3567 11.5742 18.6274C11.5742 18.8981 11.7815 19.1176 12.0372 19.1176Z" fill="black"/>
<path d="M13.8891 20.0981H11.1114C10.8557 20.0981 10.6484 20.3176 10.6484 20.5883V21.0785C10.6484 22.1614 11.4775 23.0393 12.5003 23.0393C13.523 23.0393 14.3521 22.1614 14.3521 21.0785V20.5883C14.3521 20.3176 14.1448 20.0981 13.8891 20.0981ZM12.5003 22.0589C11.9889 22.0589 11.5743 21.62 11.5743 21.0785H13.4262C13.4262 21.62 13.0116 22.0589 12.5003 22.0589Z" fill="black"/>
<path d="M7.40631 14.2157H8.79517C9.05085 14.2157 9.25812 13.9963 9.25812 13.7255C9.25812 13.4548 9.05085 13.2354 8.79517 13.2354H7.40631C7.15063 13.2354 6.94336 13.4548 6.94336 13.7255C6.94336 13.9963 7.15063 14.2157 7.40631 14.2157Z" fill="black"/>
<path d="M5.03321 23.9211C5.20226 24.054 5.4347 24.0494 5.59891 23.9098C5.76311 23.7703 5.81772 23.531 5.73181 23.3275C5.60573 23.0204 5.4975 22.7055 5.40774 22.3844C6.66552 23.4736 8.14058 24.2459 9.72154 24.6432V24.9995H8.33268C6.28817 25.002 4.63135 26.7562 4.62905 28.921C4.62905 29.1917 4.83632 29.4112 5.09201 29.4112H19.9065C20.1622 29.4112 20.3695 29.1917 20.3695 28.921C20.3695 26.7552 18.7113 24.9995 16.6658 24.9995H15.277V24.6432C16.8578 24.2463 18.3328 23.4744 19.5908 22.3859C19.5007 22.7067 19.3925 23.0215 19.2667 23.3285C19.1816 23.5319 19.2365 23.7705 19.4005 23.9096C19.5645 24.0487 19.7964 24.0534 19.9653 23.9211C24.7465 20.1414 26.3472 13.3161 23.7912 7.60724C23.9334 7.37539 24.0356 7.11863 24.093 6.84892C24.4262 6.59657 24.694 6.2594 24.8717 5.86855C25.0292 5.53224 25.0406 5.13993 24.9027 4.79406C24.7338 4.36807 24.4001 4.03953 23.9865 3.89212C23.5265 3.72539 23.0383 3.66375 22.5541 3.71124C22.5013 3.4735 22.3659 3.26548 22.175 3.12841L20.6343 2.03677C20.4424 1.90133 20.2093 1.84726 19.9815 1.8853C19.8382 1.3935 19.5984 0.939313 19.2778 0.552482C18.993 0.205485 18.5814 0.00436041 18.1473 4.24008e-05H18.1376C17.7829 -0.0030031 17.4447 0.158143 17.2117 0.44121C17.102 0.579153 17.0037 0.726743 16.9177 0.882377C15.5065 0.313758 14.0091 0.0230386 12.4993 0.0245517C7.10713 0.0388526 2.32835 3.70421 0.634827 9.12465C-1.05869 14.5451 0.712898 20.5048 5.03321 23.9211V23.9211ZM18.6283 26.8402C19.0377 27.2713 19.3089 27.8277 19.4037 28.4308H5.592C5.8196 27.016 6.97718 25.9808 8.33268 25.9799H9.78913C9.99941 26.8423 10.7322 27.4462 11.5734 27.4505H13.4252C14.2689 27.4538 15.0056 26.8467 15.2099 25.9799H16.6658C17.4023 25.9782 18.1089 26.2883 18.6283 26.8412V26.8402ZM14.3511 25.4804V25.4897V25.4961C14.3478 26.035 13.9342 26.4701 13.4252 26.4701H11.5734C11.062 26.4701 10.6474 26.0312 10.6474 25.4897V24.8436C11.8742 25.0515 13.1243 25.0515 14.3511 24.8436V25.4804ZM12.4993 24.0192C9.6557 24.0715 6.92816 22.8267 5.01145 20.6021C4.65155 18.0034 4.51719 15.3753 4.61007 12.7508C4.61712 12.5945 4.69241 12.4507 4.81377 12.3616C5.79025 11.6619 6.8841 11.1664 8.03639 10.9018C8.22184 10.8533 8.36011 10.6892 8.38453 10.4886C8.57157 9.10335 9.18621 7.8226 10.1326 6.84598C9.95738 7.88359 9.90822 8.94068 9.98635 9.9915C9.99434 10.125 10.0535 10.2492 10.1501 10.3354C10.2467 10.4215 10.3723 10.4622 10.4979 10.4479C11.6525 10.316 12.4886 10.3209 12.503 10.3185C12.5493 10.3185 17.5186 10.3023 20.188 12.3625C20.3089 12.4518 20.3838 12.5954 20.3908 12.7513C20.4841 15.3758 20.3497 18.004 19.9894 20.6026C18.0719 22.8275 15.3435 24.072 12.4993 24.0192V24.0192ZM23.6916 4.822C23.8499 4.87812 23.9782 5.00288 24.0444 5.16513C24.0796 5.24598 24.0814 5.33867 24.0495 5.42101C23.926 5.70676 23.7221 5.94509 23.4657 6.10335C23.3121 6.18053 23.2107 6.34068 23.2018 6.5205C23.1724 6.78341 23.0719 7.03175 22.9125 7.23568C22.9074 7.24205 22.9032 7.24891 22.8981 7.25578C22.8745 7.28862 22.8518 7.32342 22.8278 7.35381C22.7684 7.41924 22.6844 7.45291 22.5991 7.44548C22.4334 7.44111 22.2772 7.36319 22.1685 7.23078C21.84 6.84747 21.6301 6.36704 21.5667 5.85384L22.2611 4.75632C22.7331 4.62326 23.2323 4.64618 23.6916 4.822V4.822ZM20.1195 2.85145L21.6579 3.9431L20.6278 5.57199L19.0889 4.48083L20.1195 2.85145ZM18.1473 0.980414C18.3128 0.984733 18.4689 1.06267 18.5774 1.19512C18.9059 1.57818 19.1159 2.05848 19.1792 2.57156L18.4848 3.66957C18.0119 3.80137 17.5123 3.77778 17.0524 3.60193C16.8944 3.54568 16.7665 3.42091 16.7006 3.2588C16.6646 3.17855 16.6624 3.08595 16.6945 3.0039C16.8189 2.71744 17.024 2.47875 17.2816 2.32058C17.4349 2.24335 17.536 2.08345 17.545 1.90392C17.5855 1.59184 17.7163 1.30072 17.9195 1.07061C17.9798 1.00753 18.0627 0.974711 18.1473 0.980414V0.980414ZM12.4993 1.00492C13.8479 1.00187 15.1864 1.25078 16.4533 1.7402C16.2155 1.97053 16.0196 2.24518 15.8756 2.55048C15.7175 2.88631 15.7062 3.27856 15.8446 3.62399C16.0115 4.05174 16.3446 4.38245 16.7584 4.53132C17.123 4.66273 17.5053 4.73029 17.8904 4.73132C17.9982 4.73132 18.0973 4.72446 18.1917 4.71514C18.2456 4.95204 18.3812 5.15905 18.5718 5.29552L20.1102 6.38668C20.262 6.49486 20.4407 6.55271 20.6236 6.55285C20.6702 6.55152 20.7166 6.54661 20.7625 6.53814C20.9058 7.03024 21.1456 7.48476 21.4662 7.87194C21.7509 8.2184 22.1621 8.41929 22.5958 8.42389H22.6055C22.7687 8.42186 22.93 8.38709 23.081 8.32144C25.0208 12.9728 24.0566 18.4085 20.6551 21.9976C21.3926 18.8702 21.3681 14.6306 21.3102 12.7218C21.2957 12.2633 21.08 11.8382 20.7269 11.5724C17.8103 9.32044 12.7067 9.34152 12.4983 9.34054C12.4682 9.34054 11.8312 9.34054 10.8849 9.42534C10.8113 6.89304 11.3803 5.84698 11.4715 5.69649C11.5365 5.61157 11.5724 5.50582 11.5734 5.3965C11.5742 5.21726 11.4825 5.05185 11.3344 4.96514C11.1862 4.87843 11.0052 4.88426 10.8623 4.98033C10.634 5.12347 8.0637 6.80137 7.5151 10.0322C6.35397 10.3311 5.25406 10.8517 4.26934 11.5684C3.91573 11.8347 3.69954 12.2602 3.68463 12.7194C3.62768 14.6282 3.60361 18.8688 4.34017 21.9952C1.01618 18.4892 0.0133335 13.2088 1.79902 8.61486C3.58471 4.02096 7.80749 1.01775 12.4993 1.00492V1.00492Z" fill="black"/>
<path d="M8.10147 15.1963C7.34355 15.2079 6.68689 15.7556 6.49873 16.533C6.45259 16.7018 6.49532 16.8839 6.61074 17.0102C6.72615 17.1365 6.89658 17.1877 7.05744 17.1444C7.2183 17.1011 7.34497 16.97 7.38945 16.8007C7.45492 16.439 7.7537 16.1775 8.10147 16.1775C8.44924 16.1775 8.74802 16.439 8.81349 16.8007C8.85797 16.97 8.98465 17.1011 9.1455 17.1444C9.30636 17.1877 9.47679 17.1365 9.59221 17.0102C9.70762 16.8839 9.75035 16.7018 9.70421 16.533C9.51605 15.7556 8.85939 15.2079 8.10147 15.1963V15.1963Z" fill="black"/>
<path d="M16.2032 14.2157H17.5921C17.8477 14.2157 18.055 13.9963 18.055 13.7255C18.055 13.4548 17.8477 13.2354 17.5921 13.2354H16.2032C15.9475 13.2354 15.7402 13.4548 15.7402 13.7255C15.7402 13.9963 15.9475 14.2157 16.2032 14.2157Z" fill="black"/>
<path d="M16.8984 15.1963C16.1404 15.2079 15.4838 15.7556 15.2956 16.533C15.2495 16.7018 15.2922 16.8839 15.4076 17.0102C15.523 17.1365 15.6935 17.1877 15.8543 17.1444C16.0152 17.1011 16.1418 16.97 16.1863 16.8007C16.2518 16.439 16.5506 16.1775 16.8984 16.1775C17.2461 16.1775 17.5449 16.439 17.6104 16.8007C17.6549 16.97 17.7815 17.1011 17.9424 17.1444C18.1033 17.1877 18.2737 17.1365 18.3891 17.0102C18.5045 16.8839 18.5472 16.7018 18.5011 16.533C18.3129 15.7556 17.6563 15.2079 16.8984 15.1963V15.1963Z" fill="black"/>
</svg>
