<svg width="21" height="20" viewBox="0 0 21 20" fill="none" xmlns="http://www.w3.org/2000/svg">
<g clip-path="url(#clip0)">
<path d="M20.9244 15.1633L19.7047 11.8977C20.2926 10.792 20.6033 9.5623 20.6054 8.32503C20.609 6.17367 19.7043 4.13952 18.0579 2.59731C16.4111 1.0548 14.2167 0.186497 11.8788 0.152423C9.45453 0.117179 7.17587 0.965525 5.46276 2.54154C3.8109 4.06122 2.89469 6.06466 2.86569 8.20556C1.23761 9.33329 0.276656 11.0915 0.279814 12.9695C0.281332 13.8484 0.496336 14.722 0.903745 15.5119L0.0636206 17.7612C-0.0807957 18.1479 0.0246967 18.5677 0.338959 18.8568C0.560116 19.0603 0.851696 19.1687 1.15156 19.1687C1.27773 19.1687 1.40537 19.1495 1.52985 19.1101L3.97475 18.3372C4.83342 18.712 5.78297 18.9098 6.73823 18.9112C6.74167 18.9112 6.74496 18.9112 6.7484 18.9112C8.8201 18.9112 10.7458 18.0043 11.9671 16.4697C13.2381 16.439 14.4956 16.1559 15.6324 15.6443L19.1821 16.7664C19.33 16.8132 19.4816 16.836 19.6316 16.836C19.9879 16.836 20.3344 16.7072 20.5973 16.4653C20.9707 16.1218 21.096 15.6229 20.9244 15.1633ZM6.74832 17.7612C6.74565 17.7612 6.74282 17.7612 6.74016 17.7612C5.89466 17.7601 5.05503 17.5683 4.31219 17.2067C4.15945 17.1324 3.98013 17.1196 3.8168 17.1712L1.3098 17.9637L2.17125 15.6573C2.22736 15.507 2.21342 15.342 2.13262 15.2016C1.7396 14.5181 1.53116 13.7457 1.52985 12.9678C1.52776 11.7166 2.05682 10.5306 2.98201 9.64256C3.28421 11.3374 4.16224 12.8993 5.52322 14.1291C6.87415 15.3499 8.57229 16.1271 10.4045 16.3812C9.43706 17.2585 8.13293 17.7612 6.74832 17.7612ZM19.7133 15.6521C19.6777 15.6849 19.6356 15.6938 19.5882 15.6788L15.7881 14.4774C15.7221 14.4566 15.6535 14.4462 15.5851 14.4462C15.4842 14.4462 15.3837 14.4687 15.2928 14.513C14.2078 15.041 12.9818 15.3211 11.7471 15.3228C11.743 15.3228 11.7394 15.3228 11.7353 15.3228C7.59833 15.3228 4.18119 12.2311 4.11564 8.426C4.08263 6.50966 4.87497 4.70863 6.34665 3.35468C7.81834 2.00073 9.7763 1.27204 11.859 1.30223C15.999 1.36264 19.3618 4.51222 19.3554 8.32321C19.3535 9.4591 19.0491 10.5871 18.4752 11.5852C18.3944 11.7257 18.3805 11.8907 18.4366 12.041L19.7423 15.537C19.7586 15.5808 19.7488 15.6195 19.7133 15.6521Z" fill="#959191"/>
<path d="M15.4585 5.26465H8.01172C7.66653 5.26465 7.38672 5.52211 7.38672 5.83965C7.38672 6.15722 7.66657 6.41464 8.01172 6.41464H15.4585C15.8037 6.41464 16.0835 6.15718 16.0835 5.83965C16.0835 5.52211 15.8037 5.26465 15.4585 5.26465Z" fill="#959191"/>
<path d="M15.4585 7.62939H8.01172C7.66653 7.62939 7.38672 7.88686 7.38672 8.20439C7.38672 8.52193 7.66657 8.77939 8.01172 8.77939H15.4585C15.8037 8.77939 16.0835 8.52193 16.0835 8.20439C16.0835 7.88686 15.8037 7.62939 15.4585 7.62939Z" fill="#959191"/>
<path d="M12.5921 9.99414H8.01172C7.66653 9.99414 7.38672 10.2516 7.38672 10.5691C7.38672 10.8867 7.66657 11.1441 8.01172 11.1441H12.592C12.9372 11.1441 13.217 10.8867 13.217 10.5691C13.217 10.2516 12.9373 9.99414 12.5921 9.99414Z" fill="#959191"/>
</g>
<defs>
<clipPath id="clip0">
<rect width="21" height="19.32" fill="white"/>
</clipPath>
</defs>
</svg>
