<svg width="25" height="25" viewBox="0 0 25 25" fill="none" xmlns="http://www.w3.org/2000/svg">
<path d="M21.5687 20.6938C21.2035 20.9829 21.0687 21.5688 21.3578 21.9341C21.8031 22.5005 22.2679 23.0767 22.7269 23.2388C23.0882 23.3657 23.4085 23.2856 23.5335 23.188L21.5687 20.6938V20.6938Z" fill="#444444"/>
<path d="M21.5703 20.6936C21.9355 20.4046 22.5371 20.4124 22.8262 20.7796C23.2715 21.346 23.7246 21.9319 23.7734 22.4143C23.8125 22.7952 23.6602 23.0882 23.5352 23.1878L21.5703 20.6936Z" fill="#444444"/>
<path d="M20.582 20.3438C21.0825 20.3438 21.4883 19.938 21.4883 19.4375C21.4883 18.937 21.0825 18.5312 20.582 18.5312C20.0815 18.5312 19.6758 18.937 19.6758 19.4375C19.6758 19.938 20.0815 20.3438 20.582 20.3438Z" fill="#FBC11B"/>
<path d="M19.959 15.7461L17.9238 16.6719L19.7656 19.834L21.4102 19.0645L19.959 15.7461Z" fill="#FBC11B"/>
<path d="M22.9609 21.4746L21.3301 18.8848L19.8887 20.0254L22.002 22.2109L22.9609 21.4746Z" fill="#FBC11B"/>
<path d="M18.0137 24.2109H16.3945L15.6914 15.7344H17.7793L18.0137 24.2109Z" fill="#FBC11B"/>
<path d="M18.2305 24.2793H16.1211V23.918C16.1211 23.4863 16.4707 23.1367 16.9023 23.1367H17.4492C17.8809 23.1367 18.2305 23.4863 18.2305 23.918V24.2793Z" fill="#444444"/>
<path d="M14.5625 6.14062C14.5625 6.14062 14.5625 10.2129 15.0879 12.1055C15.3457 13.0391 15.668 13.627 16.4434 13.0449L19.4473 13.0156C20.2207 13.6055 20.7754 13.0391 20.9414 12.082C21.3359 9.82031 21.3359 6.14062 21.3359 6.14062H14.5625V6.14062Z" fill="#6D4C41"/>
<path d="M13.7238 14.221C13.768 13.8852 13.5317 13.5771 13.1958 13.5329C12.86 13.4887 12.552 13.7251 12.5078 14.0609C12.4636 14.3967 12.7 14.7048 13.0358 14.749C13.3716 14.7932 13.6796 14.5568 13.7238 14.221Z" fill="#FBC11B"/>
<path d="M14.6484 11.373C13.8906 12.1542 13.0332 13.2792 12.6582 13.7226L13.5781 14.5312L13.8105 14.2929C14.2539 13.8163 15.6367 12.6093 15.6367 12.6093C15.6367 12.6093 14.7441 11.2734 14.6484 11.373V11.373Z" fill="#FBC11B"/>
<path d="M17.9531 10.541C17.3379 10.541 16.5703 10.6367 16.1543 10.7207C15.3555 10.8828 14.7949 11.1367 14.125 11.707L15.6035 13.2422L17.9531 14.1367V10.541V10.541Z" fill="#444444"/>
<path d="M15.4668 15.6211L14.2227 14.3555C13.9883 14.1133 13.7695 13.8574 13.5625 13.5918L12.6582 14.5508C13.4316 15.3359 13.9766 15.8574 14.6465 16.4434C14.7039 16.5003 14.7726 16.5445 14.8481 16.5733C14.9237 16.6021 15.0044 16.6148 15.0851 16.6106C15.1659 16.6064 15.2448 16.5853 15.3169 16.5488C15.3891 16.5122 15.4527 16.461 15.5039 16.3984C15.6953 16.1699 15.6777 15.832 15.4668 15.6211V15.6211Z" fill="#FBC11B"/>
<path d="M22.8716 14.7469C23.2074 14.7027 23.4438 14.3946 23.3996 14.0588C23.3554 13.723 23.0474 13.4866 22.7116 13.5308C22.3757 13.575 22.1394 13.8831 22.1836 14.2189C22.2278 14.5547 22.5358 14.7911 22.8716 14.7469Z" fill="#FBC11B"/>
<path d="M21.2559 11.373C22.0137 12.1542 22.8711 13.2792 23.2461 13.7226L22.3262 14.5312L22.0938 14.2929C21.6504 13.8163 20.2676 12.6093 20.2676 12.6093C20.2676 12.6093 21.1602 11.2734 21.2559 11.373V11.373Z" fill="#FBC11B"/>
<path d="M17.9531 10.541C18.5684 10.541 19.3359 10.6367 19.752 10.7207C20.5508 10.8828 21.1113 11.1367 21.7813 11.707L20.3027 13.2422L17.9531 14.1367V10.541V10.541Z" fill="#444444"/>
<path d="M20.4369 15.6211L21.6811 14.3555C21.9154 14.1133 22.1342 13.8574 22.3412 13.5918L23.2455 14.5508C22.4721 15.3359 21.9272 15.8574 21.2572 16.4434C21.1998 16.5003 21.1311 16.5445 21.0556 16.5733C20.9801 16.6021 20.8993 16.6148 20.8186 16.6106C20.7379 16.6064 20.6589 16.5853 20.5868 16.5488C20.5147 16.5122 20.451 16.461 20.3998 16.3984C20.2104 16.1699 20.226 15.832 20.4369 15.6211V15.6211Z" fill="#FBC11B"/>
<path d="M17.3789 11.5684H18.3125V14.3398H17.3789V11.5684Z" fill="#444444"/>
<path d="M18.4121 16.1953H15.6035V12.6777H18.4121V16.1953Z" fill="#444444"/>
<path d="M20.291 16.1943H17.9531V12.6768H20.291V16.1943Z" fill="#444444"/>
<path d="M17.9531 12.6172C19.1172 12.6172 20.0605 11.9297 20.0605 11.0801C20.0605 11.0293 20.0566 10.9786 20.0508 10.9297C19.957 10.8985 19.8594 10.8672 19.752 10.8379C19.3418 10.7286 18.5684 10.6563 17.9531 10.6582C17.3379 10.6582 16.5645 10.7286 16.1543 10.8379C16.0469 10.8672 15.9492 10.8965 15.8555 10.9297C15.8496 10.9786 15.8457 11.0293 15.8457 11.0801C15.8457 11.9278 16.7891 12.6172 17.9531 12.6172V12.6172Z" fill="#FBC11B"/>
<path d="M17.9531 11.7637C17.4355 11.7637 17.0527 11.416 17.0527 10.9004V10.002H18.8516V10.9004C18.8516 11.418 18.4707 11.7637 17.9531 11.7637V11.7637Z" fill="#FBC11B"/>
<path d="M18.8516 10.8828C18.8516 10.8828 18.5078 11.0215 17.9531 11.0215C17.3984 11.0215 17.0527 10.8984 17.0527 10.8984V10.0156C17.0527 9.7793 17.209 9.52344 17.4453 9.52344H18.4629C18.6992 9.52344 18.8535 9.76172 18.8535 9.99805V10.8828H18.8516Z" fill="#E7A13D"/>
<path d="M17.957 11.8418C17.8365 11.8418 17.7171 11.8181 17.6057 11.7719C17.4944 11.7258 17.3932 11.6582 17.3079 11.5729C17.2227 11.4877 17.1551 11.3865 17.1089 11.2751C17.0628 11.1637 17.0391 11.0444 17.0391 10.9238V10.1387H18.877V10.9238C18.8764 11.1675 18.7793 11.401 18.6068 11.573C18.4344 11.7451 18.2007 11.8418 17.957 11.8418V11.8418Z" fill="#E49800"/>
<path d="M17.957 9.16406C19.8264 9.16406 21.3418 7.80168 21.3418 6.12109C21.3418 4.44051 19.8264 3.07812 17.957 3.07812C16.0877 3.07812 14.5723 4.44051 14.5723 6.12109C14.5723 7.80168 16.0877 9.16406 17.957 9.16406Z" fill="#6D4C41"/>
<path d="M17.957 3.81055C15.875 3.81055 15.3301 5.42383 15.3301 7.69141C15.3301 9.95898 16.9453 10.6504 17.957 10.6504C18.9688 10.6504 20.584 9.95898 20.584 7.69141C20.584 5.42383 20.0391 3.81055 17.957 3.81055Z" fill="#FBC11B"/>
<path d="M17.0586 7.7832C17.0586 8.02539 16.8965 8.22266 16.6953 8.22266C16.4941 8.22266 16.3301 8.02539 16.3301 7.7832C16.3301 7.53906 16.4941 7.3418 16.6953 7.3418C16.8965 7.34375 17.0586 7.53906 17.0586 7.7832Z" fill="#444444"/>
<path d="M18.8555 7.7832C18.8555 8.02539 19.0176 8.22266 19.2207 8.22266C19.4219 8.22266 19.5859 8.02539 19.5859 7.7832C19.5859 7.53906 19.4219 7.3418 19.2207 7.3418C19.0176 7.34375 18.8555 7.53906 18.8555 7.7832Z" fill="#444444"/>
<path d="M18.752 5.58789C18.4746 5.85351 17.0996 7.0918 15.207 7.41601V4.87695C15.207 4.87695 16.0254 3.25391 17.9863 3.25391C19.9473 3.25391 20.7656 4.91797 20.7656 4.91797V7.41601C20.7656 7.41601 19.4805 6.92187 18.834 5.60352C18.8304 5.59626 18.8252 5.58994 18.8187 5.58504C18.8123 5.58014 18.8048 5.57681 18.7969 5.57529C18.7889 5.57378 18.7807 5.57413 18.7729 5.57631C18.7651 5.5785 18.758 5.58246 18.752 5.58789Z" fill="#6D4C41"/>
<path d="M18.7446 9.27148H17.9555H17.1665C17.0766 9.27148 17.0376 9.33203 17.0962 9.42383C17.1801 9.55078 17.4907 9.79688 17.9555 9.79688C18.4204 9.79688 18.7309 9.55078 18.8149 9.42383C18.8754 9.33203 18.8364 9.27148 18.7446 9.27148Z" fill="#4C3734"/>
<path d="M18.338 8.64825C18.2032 8.68536 18.0645 8.70489 17.9571 8.70489C17.8497 8.70489 17.711 8.68536 17.5762 8.64825C17.5196 8.63263 17.4962 8.68731 17.5176 8.72247C17.5606 8.79669 17.7325 8.94903 17.959 8.94903C18.1856 8.94903 18.3575 8.79864 18.4005 8.72247C18.418 8.68731 18.3965 8.63263 18.338 8.64825V8.64825Z" fill="#E38B15"/>
<path d="M17.2793 2.33984C17.2793 3.4082 16.6914 4.27539 16.4062 4.27539C16.082 4.27539 15.5332 3.4082 15.5332 2.33984C15.5332 1.32812 16.0801 0.404297 16.4062 0.404297C16.7168 0.404297 17.2793 1.39062 17.2793 2.33984Z" fill="#2F2F2F"/>
<path d="M16.4043 1.33594C16.4043 1.33594 15.4902 2.28906 16.4043 3.375C17.3184 2.28906 16.4043 1.33594 16.4043 1.33594V1.33594Z" fill="#FF7CE5"/>
<path d="M18.6309 2.33984C18.6309 3.4082 19.2188 4.27539 19.5039 4.27539C19.8281 4.27539 20.377 3.4082 20.377 2.33984C20.377 1.32812 19.8301 0.404297 19.5039 0.404297C19.1953 0.404297 18.6309 1.39062 18.6309 2.33984Z" fill="#2F2F2F"/>
<path d="M19.503 1.33594C19.503 1.33594 20.4171 2.28906 19.503 3.375C18.5909 2.28906 19.503 1.33594 19.503 1.33594V1.33594Z" fill="#FF7CE5"/>
<path d="M20.5515 5.04299C20.2546 4.66409 19.4851 3.74026 17.9558 3.76565C16.4265 3.74026 15.657 4.66409 15.3601 5.04299C15.321 5.09378 15.3816 5.16213 15.4363 5.12893C16.5085 4.49807 16.8718 4.36721 17.9558 4.32815C19.0378 4.36721 19.4031 4.49807 20.4753 5.12893C20.53 5.16018 20.5925 5.09378 20.5515 5.04299V5.04299Z" fill="#2F2F2F"/>
<path d="M22.4414 22.3984C22.7769 22.3984 23.0488 22.1265 23.0488 21.791C23.0488 21.4555 22.7769 21.1836 22.4414 21.1836C22.1059 21.1836 21.834 21.4555 21.834 21.791C21.834 22.1265 22.1059 22.3984 22.4414 22.3984Z" fill="#FBC11B"/>
<path d="M20.291 16.1953H15.6035L17.0801 17.3008C17.1699 17.3848 17.7695 17.791 18.1309 17.791H18.1387C18.5527 17.791 18.9063 17.4238 18.9961 17.3398L20.291 16.1953Z" fill="#444444"/>
<path d="M15.7871 16.0176L15.6035 16.1953L15.8848 16.3437H19.9551L20.291 16.1953L20.0605 15.9766L15.7871 16.0176Z" fill="#444444"/>
<path d="M10.3324 20.6938C9.96714 20.9829 9.83238 21.5688 10.1214 21.9341C10.5668 22.5005 11.0316 23.0767 11.4906 23.2388C11.8519 23.3657 12.1722 23.2856 12.2972 23.188L10.3324 20.6938V20.6938Z" fill="#444444"/>
<path d="M10.334 20.6936C10.6992 20.4046 11.3008 20.4124 11.5898 20.7796C12.0352 21.346 12.4883 21.9319 12.5371 22.4143C12.5762 22.7952 12.4238 23.0882 12.2988 23.1878L10.334 20.6936Z" fill="#444444"/>
<path d="M9.34766 20.3438C9.84816 20.3438 10.2539 19.938 10.2539 19.4375C10.2539 18.937 9.84816 18.5312 9.34766 18.5312C8.84715 18.5312 8.44141 18.937 8.44141 19.4375C8.44141 19.938 8.84715 20.3438 9.34766 20.3438Z" fill="#FBC11B"/>
<path d="M8.72461 15.7461L6.68945 16.6719L8.53125 19.834L10.1758 19.0645L8.72461 15.7461Z" fill="#FBC11B"/>
<path d="M11.7266 21.4746L10.0957 18.8848L8.6543 20.0254L10.7676 22.2109L11.7266 21.4746Z" fill="#FBC11B"/>
<path d="M6.7793 24.2109H5.16211L4.45898 15.7344H6.54492L6.7793 24.2109Z" fill="#FBC11B"/>
<path d="M6.99414 24.2793H4.88477V23.918C4.88477 23.4863 5.23437 23.1367 5.66602 23.1367H6.21289C6.64453 23.1367 6.99414 23.4863 6.99414 23.918V24.2793Z" fill="#444444"/>
<path d="M3.32812 6.14062C3.32812 6.14062 3.32812 10.2129 3.85352 12.1055C4.11133 13.0391 4.43359 13.627 5.20898 13.0449L8.21289 13.0156C8.98633 13.6055 9.54102 13.0391 9.70703 12.082C10.1016 9.82031 10.1016 6.14062 10.1016 6.14062H3.32812V6.14062Z" fill="#6D4C41"/>
<path d="M2.48752 14.2185C2.53172 13.8827 2.29533 13.5747 1.95952 13.5305C1.62371 13.4863 1.31565 13.7227 1.27144 14.0585C1.22724 14.3943 1.46363 14.7023 1.79944 14.7465C2.13525 14.7907 2.44331 14.5544 2.48752 14.2185Z" fill="#FBC11B"/>
<path d="M3.41406 11.373C2.65625 12.1542 1.79883 13.2792 1.42383 13.7226L2.34375 14.5312L2.57617 14.2929C3.01953 13.8163 4.40234 12.6093 4.40234 12.6093C4.40234 12.6093 3.50977 11.2734 3.41406 11.373V11.373Z" fill="#FBC11B"/>
<path d="M6.71875 10.541C6.10352 10.541 5.33594 10.6367 4.91992 10.7207C4.12109 10.8828 3.56055 11.1367 2.89062 11.707L4.36914 13.2422L6.71875 14.1367V10.541Z" fill="#444444"/>
<path d="M4.23242 15.6211L2.98828 14.3555C2.75391 14.1133 2.53516 13.8574 2.32813 13.5918L1.42383 14.5508C2.19727 15.3359 2.74219 15.8574 3.41211 16.4434C3.46954 16.5003 3.53822 16.5445 3.61376 16.5733C3.6893 16.6021 3.77003 16.6148 3.85076 16.6106C3.93149 16.6064 4.01045 16.5853 4.08257 16.5488C4.15468 16.5122 4.21837 16.461 4.26953 16.3984C4.46094 16.1699 4.44336 15.832 4.23242 15.6211V15.6211Z" fill="#FBC11B"/>
<path d="M11.6373 14.7469C11.9731 14.7027 12.2095 14.3946 12.1653 14.0588C12.121 13.723 11.813 13.4866 11.4772 13.5308C11.1414 13.575 10.905 13.8831 10.9492 14.2189C10.9934 14.5547 11.3014 14.7911 11.6373 14.7469Z" fill="#FBC11B"/>
<path d="M10.0215 11.373C10.7793 12.1542 11.6367 13.2792 12.0117 13.7226L11.0918 14.5312L10.8594 14.2929C10.416 13.8163 9.0332 12.6093 9.0332 12.6093C9.0332 12.6093 9.92578 11.2734 10.0215 11.373V11.373Z" fill="#FBC11B"/>
<path d="M6.71875 10.541C7.33398 10.541 8.10156 10.6367 8.51758 10.7207C9.31641 10.8828 9.87695 11.1367 10.5469 11.707L9.06836 13.2422L6.71875 14.1387V10.541Z" fill="#444444"/>
<path d="M9.20255 15.6211L10.4467 14.3555C10.6811 14.1133 10.8998 13.8574 11.1069 13.5918L12.0111 14.5508C11.2377 15.3359 10.6928 15.8574 10.0229 16.4434C9.96544 16.5003 9.89676 16.5445 9.82122 16.5733C9.74568 16.6021 9.66495 16.6148 9.58422 16.6106C9.50349 16.6064 9.42453 16.5853 9.35241 16.5488C9.28029 16.5122 9.21661 16.461 9.16545 16.3984C8.97599 16.1699 8.99162 15.832 9.20255 15.6211V15.6211Z" fill="#FBC11B"/>
<path d="M6.14453 11.5684H7.07813V14.3398H6.14453V11.5684Z" fill="#444444"/>
<path d="M7.17774 16.1953H4.36914V12.6777H7.17774V16.1953Z" fill="#444444"/>
<path d="M9.05469 16.1948H6.7168V12.6772H9.05469V16.1948Z" fill="#444444"/>
<path d="M6.71875 12.6172C7.88281 12.6172 8.82617 11.9297 8.82617 11.0801C8.82617 11.0293 8.82227 10.9786 8.81641 10.9297C8.72266 10.8985 8.625 10.8672 8.51758 10.8379C8.10742 10.7286 7.33398 10.6563 6.71875 10.6582C6.10352 10.6582 5.33008 10.7286 4.91992 10.8379C4.8125 10.8672 4.71484 10.8965 4.62109 10.9297C4.61523 10.9786 4.61133 11.0293 4.61133 11.0801C4.61133 11.9278 5.55469 12.6172 6.71875 12.6172V12.6172Z" fill="#FBC11B"/>
<path d="M6.71875 11.7637C6.20117 11.7637 5.81836 11.416 5.81836 10.9004V10.002H7.61719V10.9004C7.61719 11.418 7.23633 11.7637 6.71875 11.7637Z" fill="#FBC11B"/>
<path d="M7.61719 10.8828C7.61719 10.8828 7.27344 11.0215 6.71875 11.0215C6.16406 11.0215 5.81836 10.8984 5.81836 10.8984V10.0156C5.81836 9.7793 5.97461 9.52344 6.21094 9.52344H7.22656C7.46289 9.52344 7.61719 9.76172 7.61719 9.99805V10.8828Z" fill="#E7A13D"/>
<path d="M6.72266 11.8418C6.4792 11.8418 6.24571 11.7451 6.07355 11.5729C5.9014 11.4008 5.80469 11.1673 5.80469 10.9238V10.1387H7.64258V10.9238C7.64206 11.1675 7.54491 11.401 7.37245 11.573C7.19999 11.7451 6.9663 11.8418 6.72266 11.8418Z" fill="#E49800"/>
<path d="M6.7207 9.16406C8.59006 9.16406 10.1055 7.80168 10.1055 6.12109C10.1055 4.44051 8.59006 3.07812 6.7207 3.07812C4.85135 3.07812 3.33594 4.44051 3.33594 6.12109C3.33594 7.80168 4.85135 9.16406 6.7207 9.16406Z" fill="#6D4C41"/>
<path d="M6.72265 3.81055C4.64062 3.81055 4.0957 5.42383 4.0957 7.69141C4.0957 9.95898 5.71094 10.6504 6.72265 10.6504C7.73437 10.6504 9.34961 9.95898 9.34961 7.69141C9.34961 5.42383 8.80469 3.81055 6.72265 3.81055Z" fill="#FBC11B"/>
<path d="M5.82226 7.7832C5.82226 8.02539 5.66016 8.22266 5.45898 8.22266C5.25781 8.22266 5.09375 8.02539 5.09375 7.7832C5.09375 7.53906 5.25781 7.3418 5.45898 7.3418C5.66016 7.34375 5.82226 7.53906 5.82226 7.7832Z" fill="#444444"/>
<path d="M7.61914 7.7832C7.61914 8.02539 7.78125 8.22266 7.98437 8.22266C8.18555 8.22266 8.34961 8.02539 8.34961 7.7832C8.34961 7.53906 8.18555 7.3418 7.98437 7.3418C7.78125 7.34375 7.61914 7.53906 7.61914 7.7832Z" fill="#444444"/>
<path d="M7.51562 5.58789C7.23828 5.85351 5.86328 7.0918 3.9707 7.41601V4.87695C3.9707 4.87695 4.78906 3.25391 6.75 3.25391C8.71094 3.25391 9.5293 4.91797 9.5293 4.91797V7.41601C9.5293 7.41601 8.24414 6.92187 7.59766 5.60352C7.59407 5.59626 7.58885 5.58994 7.58241 5.58504C7.57597 5.58014 7.56848 5.57681 7.56053 5.57529C7.55258 5.57378 7.54439 5.57413 7.5366 5.57631C7.5288 5.5785 7.52163 5.58246 7.51562 5.58789V5.58789Z" fill="#6D4C41"/>
<path d="M7.51021 9.27148H6.72115H5.93209C5.84225 9.27148 5.80318 9.33203 5.86178 9.42383C5.94576 9.55078 6.25631 9.79687 6.72115 9.79687C7.186 9.79687 7.49654 9.55078 7.58053 9.42383C7.64107 9.33203 7.60201 9.27148 7.51021 9.27148Z" fill="#4C3734"/>
<path d="M7.10162 8.64874C6.96686 8.68585 6.82819 8.70538 6.72076 8.70538C6.61334 8.70538 6.47467 8.68585 6.33991 8.64874C6.28327 8.63311 6.25983 8.6878 6.28131 8.72296C6.32428 8.79718 6.49616 8.94952 6.72272 8.94952C6.94928 8.94952 7.12116 8.79913 7.16412 8.72296C7.1817 8.6878 7.16022 8.63311 7.10162 8.64874V8.64874Z" fill="#E38B15"/>
<path d="M6.04492 2.33984C6.04492 3.4082 5.45703 4.27539 5.17187 4.27539C4.84766 4.27539 4.29883 3.4082 4.29883 2.33984C4.29883 1.32812 4.8457 0.404297 5.17187 0.404297C5.48242 0.404297 6.04492 1.39062 6.04492 2.33984Z" fill="#2F2F2F"/>
<path d="M5.16992 1.33594C5.16992 1.33594 4.25586 2.28906 5.16992 3.375C6.08398 2.28906 5.16992 1.33594 5.16992 1.33594V1.33594Z" fill="#FF7CE5"/>
<path d="M7.39648 2.33984C7.39648 3.4082 7.98438 4.27539 8.26953 4.27539C8.59375 4.27539 9.14258 3.4082 9.14258 2.33984C9.14258 1.32812 8.5957 0.404297 8.26953 0.404297C7.96094 0.404297 7.39648 1.39062 7.39648 2.33984Z" fill="#2F2F2F"/>
<path d="M8.26866 1.33594C8.26866 1.33594 9.18272 2.28906 8.26866 3.375C7.35655 2.28906 8.26866 1.33594 8.26866 1.33594V1.33594Z" fill="#FF7CE5"/>
<path d="M9.31713 5.04299C9.02025 4.66409 8.25072 3.74026 6.72143 3.76565C5.19213 3.74026 4.4226 4.66409 4.12572 5.04299C4.08666 5.09378 4.14721 5.16213 4.2019 5.12893C5.27416 4.49807 5.63744 4.36721 6.72143 4.32815C7.80346 4.36721 8.16869 4.49807 9.24096 5.12893C9.29564 5.16018 9.35814 5.09378 9.31713 5.04299V5.04299Z" fill="#2F2F2F"/>
<path d="M11.2051 22.3984C11.5405 22.3984 11.8125 22.1265 11.8125 21.791C11.8125 21.4555 11.5405 21.1836 11.2051 21.1836C10.8696 21.1836 10.5977 21.4555 10.5977 21.791C10.5977 22.1265 10.8696 22.3984 11.2051 22.3984Z" fill="#FBC11B"/>
<path d="M9.05664 16.1953H4.36914L5.8457 17.3008C5.93555 17.3848 6.53516 17.791 6.89648 17.791H6.9043C7.31836 17.791 7.67187 17.4238 7.76172 17.3398L9.05664 16.1953Z" fill="#444444"/>
<path d="M4.55273 16.0176L4.36914 16.1953L4.65039 16.3438H8.7207L9.05664 16.1953L8.82617 15.9766L4.55273 16.0176Z" fill="#444444"/>
</svg>
