<svg width="10" height="14" viewBox="0 0 10 14" fill="none" xmlns="http://www.w3.org/2000/svg">
<path d="M9.64262 0.076486C9.53494 0.0198555 9.4138 -0.00617168 9.29237 0.00123427C9.17093 0.00864021 9.05385 0.0491958 8.95386 0.118492L0.286023 6.1193C0.197717 6.18093 0.125599 6.26297 0.0758019 6.35845C0.0260045 6.45393 0 6.56002 0 6.66771C0 6.77539 0.0260045 6.88149 0.0758019 6.97696C0.125599 7.07244 0.197717 7.15449 0.286023 7.21611L8.95386 13.2169C9.05389 13.2861 9.17095 13.3267 9.29236 13.3341C9.41377 13.3416 9.53492 13.3157 9.64267 13.2592C9.75042 13.2028 9.84067 13.1179 9.90365 13.0139C9.96664 12.9098 9.99996 12.7905 10 12.6689V0.667232C10 0.545525 9.96673 0.426133 9.90373 0.321998C9.84073 0.217863 9.75043 0.132958 9.64262 0.076486ZM8.66649 11.396L1.8369 6.66804L8.66649 1.94007V11.396Z" fill="black"/>
</svg>
