<svg width="45" height="58" viewBox="0 0 45 58" fill="none" xmlns="http://www.w3.org/2000/svg">
<path d="M30.682 34.7726H26.5911V30.6817H18.4093V34.7726H14.3184V30.6817C14.3194 29.5971 14.7508 28.5572 15.5178 27.7902C16.2847 27.0233 17.3246 26.5919 18.4093 26.5908H26.5911C27.6757 26.5919 28.7156 27.0233 29.4826 27.7902C30.2495 28.5572 30.6809 29.5971 30.682 30.6817V34.7726Z" fill="#FF006B"/>
<path d="M22.4996 24.5457C21.286 24.5457 20.0996 24.1858 19.0905 23.5115C18.0813 22.8372 17.2948 21.8789 16.8304 20.7576C16.3659 19.6363 16.2444 18.4025 16.4812 17.2122C16.718 16.0218 17.3024 14.9284 18.1606 14.0702C19.0188 13.2121 20.1122 12.6276 21.3025 12.3909C22.4928 12.1541 23.7267 12.2756 24.8479 12.7401C25.9692 13.2045 26.9276 13.991 27.6018 15.0001C28.2761 16.0093 28.636 17.1957 28.636 18.4093C28.6344 20.0363 27.9873 21.5961 26.8369 22.7466C25.6865 23.897 24.1266 24.544 22.4996 24.5457ZM22.4996 16.3639C22.0951 16.3639 21.6996 16.4838 21.3632 16.7086C21.0269 16.9333 20.7647 17.2528 20.6099 17.6265C20.4551 18.0003 20.4146 18.4116 20.4935 18.8084C20.5724 19.2051 20.7672 19.5696 21.0533 19.8557C21.3394 20.1417 21.7038 20.3365 22.1006 20.4155C22.4974 20.4944 22.9086 20.4539 23.2824 20.2991C23.6562 20.1442 23.9756 19.8821 24.2004 19.5457C24.4251 19.2093 24.5451 18.8139 24.5451 18.4093C24.5446 17.867 24.3289 17.347 23.9454 16.9636C23.5619 16.5801 23.042 16.3644 22.4996 16.3639Z" fill="#FF006B"/>
<path d="M22.5 57.2727L5.24456 36.9225C5.0048 36.6169 4.76752 36.3094 4.53275 36C1.58521 32.1173 -0.00712061 27.3748 2.39377e-05 22.5C2.39377e-05 16.5326 2.37055 10.8097 6.59011 6.59009C10.8097 2.37053 16.5326 0 22.5 0C28.4674 0 34.1903 2.37053 38.4099 6.59009C42.6295 10.8097 45 16.5326 45 22.5C45.0071 27.3725 43.4155 32.1129 40.4693 35.9938L40.4673 36C40.4673 36 39.8536 36.8059 39.7616 36.9143L22.5 57.2727ZM7.79729 33.5352C7.80138 33.5352 8.27592 34.1652 8.38433 34.3002L22.5 50.9481L36.6341 34.2777C36.7241 34.1652 37.2027 33.5311 37.2048 33.5291C39.6126 30.3568 40.9138 26.4825 40.9091 22.5C40.9091 17.6176 38.9695 12.9352 35.5172 9.4828C32.0648 6.03043 27.3824 4.09091 22.5 4.09091C17.6176 4.09091 12.9352 6.03043 9.48282 9.4828C6.03045 12.9352 4.09093 17.6176 4.09093 22.5C4.08664 26.485 5.38933 30.3615 7.79933 33.5352H7.79729Z" fill="#FF006B"/>
</svg>
