<svg width="10" height="14" viewBox="0 0 10 14" fill="none" xmlns="http://www.w3.org/2000/svg">
<path d="M0.357349 13.2588C0.465196 13.3148 0.586284 13.3405 0.707615 13.333C0.828946 13.3255 0.945939 13.2851 1.04604 13.2161L9.71298 7.21589C9.80155 7.15454 9.87392 7.07263 9.9239 6.97719C9.97389 6.88175 10 6.77561 10 6.66788C10 6.56014 9.97389 6.454 9.9239 6.35856C9.87392 6.26312 9.80155 6.18121 9.71298 6.11986L1.04604 0.119665C0.946127 0.0499661 0.829 0.00903394 0.707424 0.00133152C0.585848 -0.0063709 0.464491 0.019452 0.356583 0.0759848C0.248676 0.132518 0.15836 0.217591 0.095482 0.321928C0.0326042 0.426266 -0.000422122 0.545864 4.07334e-06 0.667683V12.6681C-1.59813e-05 12.7898 0.0332738 12.9091 0.0962653 13.0133C0.159257 13.1174 0.249547 13.2023 0.357349 13.2588ZM1.33338 1.94039L8.16227 6.66788L1.33338 11.3954V1.94039Z" fill="black"/>
</svg>
