<svg width="211" height="139" viewBox="0 0 211 139" fill="none" xmlns="http://www.w3.org/2000/svg">
<path d="M14.08 50.928H29.504L27.584 62H0.704L8.576 17.2H20.032L14.08 50.928ZM51.8525 62.96C47.3298 62.96 43.3832 61.8293 40.0125 59.568C36.6418 57.3067 34.2525 54.3413 32.8445 50.672C31.4365 47.0027 31.0952 43.0773 31.8205 38.896C32.9298 32.496 35.9378 27.12 40.8445 22.768C45.7512 18.416 51.7032 16.24 58.7005 16.24C65.4845 16.24 70.7538 18.6293 74.5085 23.408C78.3058 28.144 79.6712 33.7333 78.6045 40.176C77.4952 46.6613 74.5085 52.08 69.6445 56.432C64.8232 60.784 58.8925 62.96 51.8525 62.96ZM44.9405 48.368C46.7752 50.6293 49.4205 51.76 52.8765 51.76C56.3325 51.76 59.4258 50.6293 62.1565 48.368C64.9298 46.064 66.6152 43.1413 67.2125 39.6C67.8525 36.0587 67.2338 33.1573 65.3565 30.896C63.4792 28.592 60.8125 27.44 57.3565 27.44C53.9005 27.44 50.8285 28.592 48.1405 30.896C45.4952 33.1573 43.8525 36.0587 43.2125 39.6C42.5725 43.184 43.1485 46.1067 44.9405 48.368ZM129.103 36.336L128.335 40.88C127.226 47.664 124.346 53.04 119.695 57.008C115.044 60.976 109.327 62.96 102.543 62.96C95.5883 62.96 90.2123 60.656 86.415 56.048C82.6177 51.3973 81.2737 45.7013 82.383 38.96C83.4923 32.3467 86.5217 26.9067 91.471 22.64C96.4203 18.3733 102.223 16.24 108.879 16.24C113.274 16.24 117.071 17.1787 120.271 19.056C123.471 20.9333 125.924 23.5147 127.631 26.8L117.135 32.432C115.258 29.104 112.122 27.44 107.727 27.44C104.228 27.44 101.178 28.5707 98.575 30.832C96.015 33.0507 94.415 35.9733 93.775 39.6C93.135 43.184 93.711 46.1707 95.503 48.56C97.295 50.9067 99.983 52.08 103.567 52.08C109.071 52.08 112.932 50.1173 115.151 46.192H104.783L106.511 36.336H129.103ZM152.29 62.96C147.767 62.96 143.821 61.8293 140.45 59.568C137.079 57.3067 134.69 54.3413 133.282 50.672C131.874 47.0027 131.533 43.0773 132.258 38.896C133.367 32.496 136.375 27.12 141.282 22.768C146.189 18.416 152.141 16.24 159.138 16.24C165.922 16.24 171.191 18.6293 174.946 23.408C178.743 28.144 180.109 33.7333 179.042 40.176C177.933 46.6613 174.946 52.08 170.082 56.432C165.261 60.784 159.33 62.96 152.29 62.96ZM145.378 48.368C147.213 50.6293 149.858 51.76 153.314 51.76C156.77 51.76 159.863 50.6293 162.594 48.368C165.367 46.064 167.053 43.1413 167.65 39.6C168.29 36.0587 167.671 33.1573 165.794 30.896C163.917 28.592 161.25 27.44 157.794 27.44C154.338 27.44 151.266 28.592 148.578 30.896C145.933 33.1573 144.29 36.0587 143.65 39.6C143.01 43.184 143.586 46.1067 145.378 48.368Z" fill="#FF006B"/>
<path d="M70.08 109.928H85.504L83.584 121H56.704L64.576 76.2H76.032L70.08 109.928ZM107.853 121.96C103.33 121.96 99.3832 120.829 96.0125 118.568C92.6418 116.307 90.2525 113.341 88.8445 109.672C87.4365 106.003 87.0952 102.077 87.8205 97.896C88.9298 91.496 91.9378 86.12 96.8445 81.768C101.751 77.416 107.703 75.24 114.701 75.24C121.485 75.24 126.754 77.6293 130.509 82.408C134.306 87.144 135.671 92.7333 134.605 99.176C133.495 105.661 130.509 111.08 125.645 115.432C120.823 119.784 114.893 121.96 107.853 121.96ZM100.941 107.368C102.775 109.629 105.421 110.76 108.877 110.76C112.333 110.76 115.426 109.629 118.157 107.368C120.93 105.064 122.615 102.141 123.213 98.6C123.853 95.0587 123.234 92.1573 121.357 89.896C119.479 87.592 116.813 86.44 113.357 86.44C109.901 86.44 106.829 87.592 104.141 89.896C101.495 92.1573 99.8525 95.0587 99.2125 98.6C98.5725 102.184 99.1485 105.107 100.941 107.368ZM143.379 121L137.299 76.2H149.203L152.083 107.688L165.971 76.2H178.899L157.075 121H143.379ZM208.636 86.888H191.676L190.524 93.16H206.012L204.092 103.656H188.732L187.58 110.248H204.86L203.004 121H174.204L182.076 76.2H210.556L208.636 86.888Z" fill="#FF006B"/>
</svg>
