<svg width="26" height="26" viewBox="0 0 26 26" fill="none" xmlns="http://www.w3.org/2000/svg">
<path d="M12.3811 5.57153H6.80969C6.15296 5.57153 5.52313 5.83242 5.05876 6.29679C4.59438 6.76117 4.3335 7.391 4.3335 8.04772V19.1906C4.3335 19.8473 4.59438 20.4771 5.05876 20.9415C5.52313 21.4059 6.15296 21.6668 6.80969 21.6668H19.1906C19.8474 21.6668 20.4772 21.4059 20.9416 20.9415C21.4059 20.4771 21.6668 19.8473 21.6668 19.1906V13.6192" stroke="#6CF6E6" stroke-opacity="0.95" stroke-linecap="round" stroke-linejoin="round"/>
<path fill-rule="evenodd" clip-rule="evenodd" d="M21.6666 4.29253C21.9967 4.63382 22.1794 5.09112 22.1755 5.56588C22.1715 6.04065 21.9812 6.49486 21.6456 6.83062L12.9999 15.4762L9.28564 16.7143L10.5237 13.0001L19.1743 4.27643C19.3378 4.11168 19.5325 3.9812 19.7471 3.89266C19.9617 3.80412 20.1917 3.75928 20.4238 3.76078C20.6559 3.76228 20.8854 3.81008 21.0988 3.90139C21.3122 3.9927 21.5052 4.12567 21.6666 4.29253V4.29253Z" stroke="#39F34C" stroke-opacity="0.95" stroke-linecap="round" stroke-linejoin="round"/>
<path d="M19.1904 6.80957L20.3703 8.04767" stroke="white" stroke-opacity="0.95" stroke-linecap="round" stroke-linejoin="round"/>
</svg>
