<svg width="21" height="20" viewBox="0 0 21 20" fill="none" xmlns="http://www.w3.org/2000/svg">
<g clip-path="url(#clip0)">
<path d="M5.4043 16.462L10.5003 18.6411V9.95481L6.11075 7.77563L5.4043 16.462Z" fill="#44C868"/>
<path d="M5.78246 11.812L10.5003 18.6411L5.4043 16.462L5.78246 11.812Z" fill="#7EE5F2"/>
<path d="M5.40407 16.462L0.308105 18.6411L1.95799 9.97711L6.11052 7.77563L5.40407 16.462Z" fill="#4CE166"/>
<path d="M1.16603 14.136L5.78224 11.812L5.40407 16.462L0.308105 18.6411L1.16603 14.136Z" fill="#A8EEFC"/>
<path d="M15.5961 16.462L20.692 18.6411L19.0422 9.97711L14.8896 7.77563L15.5961 16.462Z" fill="#44C868"/>
<path d="M15.0991 10.348L20.1843 15.9735L19.0425 9.97719L18.4131 9.64355L15.0991 10.348Z" fill="#7EE5F2"/>
<path d="M15.596 16.462L10.5 18.6411V9.95481L14.8896 7.77563L15.596 16.462Z" fill="#4CE166"/>
<path d="M1.16602 14.1359L5.78223 11.8119L5.91659 10.1602L1.50107 12.3764L1.16602 14.1359Z" fill="#FFDB56"/>
<path d="M10.5013 10.785L5.91659 10.1602L5.78223 11.8119L10.5 18.641V16.1578L7.68485 11.9324L10.5013 12.2535V10.785Z" fill="#FFBB24"/>
<path d="M15.0989 10.3479L18.4129 9.64341L16.4242 8.58911L14.9819 8.91028L15.0989 10.3479Z" fill="#FFBB24"/>
<path d="M15.2665 12.4075L15.0877 10.2084L14.982 8.9104L10.5015 10.7851V12.2536L13.4282 11.0405L15.2665 12.4075Z" fill="#FFDB56"/>
<path d="M15.2666 12.4074L20.6923 18.6411L20.1843 15.9734L15.0991 10.3479L15.2666 12.4074Z" fill="#FFBB24"/>
<path d="M10.52 1.35889C8.30902 1.35889 6.5166 3.06591 6.5166 5.17169C6.5166 8.37835 10.52 11.3288 10.52 11.3288C10.52 11.3288 14.5235 8.37835 14.5235 5.17169C14.5234 3.06591 12.7311 1.35889 10.52 1.35889ZM10.52 6.69238C9.63821 6.69238 8.92327 6.01157 8.92327 5.17165C8.92327 4.33177 9.63812 3.65091 10.52 3.65091C11.402 3.65091 12.1168 4.33177 12.1168 5.17165C12.1168 6.01153 11.4019 6.69238 10.52 6.69238Z" fill="#FF4A4A"/>
<path d="M10.5201 1.35889C10.3319 1.35889 10.1467 1.37158 9.96533 1.39553C11.9138 1.65283 13.414 3.24529 13.414 5.17173C13.414 7.62824 11.0646 9.93437 9.96533 10.8789C10.301 11.1673 10.5201 11.3289 10.5201 11.3289C10.5201 11.3289 14.5236 8.37839 14.5236 5.17173C14.5235 3.06591 12.7312 1.35889 10.5201 1.35889Z" fill="#E7343F"/>
<path d="M10.5 16.1577L12.2562 17.89L10.5 18.6409V16.1577Z" fill="#FFDB56"/>
<path d="M20.9352 18.821C20.9367 18.8191 20.9384 18.8175 20.9399 18.8157C20.9491 18.8038 20.9572 18.7913 20.9644 18.7784C20.9664 18.7747 20.9679 18.7709 20.9698 18.7671C20.9746 18.7576 20.979 18.748 20.9826 18.7381C20.9845 18.7331 20.986 18.728 20.9875 18.7228C20.9903 18.7137 20.9927 18.7044 20.9945 18.695C20.9956 18.6896 20.9965 18.6842 20.9973 18.6787C20.9986 18.6688 20.9993 18.6586 20.9995 18.6485C20.9997 18.6437 21.0001 18.6389 21 18.634C20.9996 18.619 20.9983 18.6039 20.9954 18.5888L19.7651 12.128C19.7347 11.9685 19.5743 11.8626 19.4068 11.8915C19.2393 11.9204 19.1282 12.0732 19.1585 12.2327L19.6787 14.9645L15.6681 10.5278L18.3656 9.95442L18.765 10.1662L18.9384 11.077C18.9687 11.2365 19.1292 11.3423 19.2967 11.3134C19.4642 11.2845 19.5753 11.1317 19.545 10.9722L19.3455 9.92481C19.329 9.83832 19.2728 9.76344 19.1922 9.72071L15.0392 7.519L15.0396 7.51923C15.0395 7.51923 15.0395 7.51919 15.0395 7.51919C15.0394 7.51915 15.0393 7.51908 15.0392 7.519C15.0273 7.51275 15.0152 7.50736 15.0028 7.50271C14.9989 7.50126 14.9949 7.50029 14.9909 7.499C14.9822 7.49611 14.9736 7.49333 14.9647 7.49119C14.9597 7.48997 14.9547 7.48927 14.9496 7.48833C14.9417 7.48685 14.9337 7.48537 14.9257 7.48447C14.9203 7.48384 14.9149 7.48365 14.9095 7.48333C14.9017 7.48287 14.894 7.48247 14.8862 7.48255C14.8807 7.48259 14.8752 7.48298 14.8697 7.4833C14.862 7.48376 14.8544 7.48443 14.8468 7.48544C14.8412 7.48619 14.8357 7.48712 14.8302 7.48818C14.8227 7.48958 14.8154 7.49122 14.808 7.49314C14.8024 7.49458 14.7969 7.49615 14.7915 7.49787C14.7843 7.50017 14.7773 7.50279 14.7703 7.5056C14.7649 7.50779 14.7595 7.50994 14.7541 7.51244C14.7518 7.51353 14.7494 7.51427 14.7471 7.5154L14.0429 7.86497C14.5668 6.9347 14.8314 6.03373 14.8314 5.17178C14.8314 2.90753 12.8972 1.06543 10.5197 1.06543C8.14226 1.06543 6.20818 2.90753 6.20818 5.17178C6.20818 6.04209 6.47773 6.9522 7.01183 7.89208L6.25309 7.5154C6.25075 7.51423 6.24825 7.51345 6.24587 7.51236C6.2407 7.50994 6.23537 7.50783 6.23012 7.50572C6.22303 7.50287 6.21585 7.50021 6.20859 7.49787C6.20321 7.49615 6.19776 7.49462 6.19231 7.49318C6.18492 7.49126 6.1775 7.48958 6.17003 7.48818C6.1645 7.48712 6.15892 7.48619 6.15334 7.48544C6.14583 7.48443 6.13829 7.4838 6.13074 7.48333C6.12508 7.48298 6.11942 7.48263 6.1138 7.48255C6.10625 7.48247 6.09875 7.48287 6.0912 7.4833C6.08554 7.48365 6.07988 7.48384 6.07422 7.48451C6.06655 7.48537 6.05896 7.48681 6.05138 7.48822C6.046 7.48923 6.04059 7.48997 6.03526 7.49126C6.02685 7.4933 6.0186 7.49599 6.01036 7.49869C6.00605 7.50009 6.00167 7.50119 5.99736 7.50279C5.98497 7.50744 5.97287 7.51283 5.96106 7.51904C5.96094 7.51908 5.96085 7.51915 5.96073 7.51923C5.96069 7.51923 5.96069 7.51927 5.96065 7.51927L1.8082 9.72071C1.72757 9.76344 1.67129 9.83832 1.65489 9.92481C1.65489 9.92485 1.65489 9.92477 1.65489 9.92481L0.485249 16.0668C0.454898 16.2263 0.56605 16.3791 0.733557 16.408C0.901105 16.437 1.06148 16.331 1.09183 16.1715L1.44271 14.3289L5.43192 12.3205L5.1111 16.2656L0.716002 18.1451L0.870671 17.3326C0.901023 17.1731 0.789912 17.0203 0.622405 16.9914C0.455021 16.9626 0.294527 17.0683 0.264135 17.2279L0.00495803 18.5889C-0.0154677 18.6961 0.0281728 18.8052 0.118243 18.8724C0.173491 18.9136 0.240551 18.9348 0.308226 18.9348C0.351005 18.9348 0.394031 18.9263 0.434431 18.909L5.40419 16.7838L10.3719 18.9081C10.372 18.9082 10.3721 18.9083 10.3722 18.9083L10.3739 18.909C10.3767 18.9102 10.3796 18.911 10.3825 18.9122C10.387 18.914 10.3916 18.9156 10.3963 18.9172C10.4008 18.9188 10.4053 18.9203 10.4099 18.9216C10.4128 18.9225 10.4158 18.9232 10.4187 18.924C10.4226 18.925 10.4264 18.926 10.4304 18.9268C10.4367 18.9283 10.4432 18.9293 10.4497 18.9304C10.4527 18.9308 10.4558 18.9315 10.4589 18.9319C10.461 18.9322 10.4631 18.9325 10.4652 18.9327C10.4755 18.9338 10.4859 18.9344 10.4962 18.9345C10.4975 18.9345 10.4988 18.9348 10.5002 18.9348C10.5008 18.9348 10.5015 18.9347 10.5021 18.9347C10.5146 18.9346 10.527 18.9336 10.5394 18.9321C10.5409 18.9319 10.5425 18.932 10.544 18.9317C10.5464 18.9314 10.5487 18.9307 10.5511 18.9303C10.5607 18.9288 10.5703 18.9268 10.5799 18.9243C10.5825 18.9237 10.5851 18.9233 10.5878 18.9226C10.5881 18.9225 10.5883 18.9225 10.5886 18.9224C10.5894 18.9222 10.5902 18.9218 10.5911 18.9215C10.6031 18.918 10.6148 18.914 10.6264 18.909L15.5961 16.7839C15.5962 16.7838 15.5961 16.7839 15.5962 16.7838L20.566 18.909C20.5708 18.9111 20.5757 18.9126 20.5806 18.9144C20.5855 18.9162 20.5902 18.9182 20.5952 18.9197C20.6016 18.9218 20.6082 18.9233 20.6148 18.9249C20.6188 18.9259 20.6228 18.9272 20.6269 18.928C20.6348 18.9296 20.6428 18.9307 20.6508 18.9317C20.6537 18.9321 20.6565 18.9327 20.6594 18.933C20.6703 18.9341 20.6813 18.9347 20.6922 18.9347H20.6923C20.6923 18.9347 20.6923 18.9347 20.6923 18.9347C20.7073 18.9347 20.7223 18.9333 20.7372 18.9312C20.7407 18.9307 20.7441 18.9302 20.7475 18.9296C20.7622 18.9271 20.7768 18.9238 20.7913 18.9191C20.7922 18.9188 20.7931 18.9184 20.794 18.9181C20.8035 18.9149 20.813 18.9115 20.8222 18.9073C20.8249 18.9061 20.8273 18.9043 20.8299 18.9031C20.8377 18.8993 20.8452 18.8951 20.8526 18.8907C20.8601 18.8863 20.8675 18.882 20.8745 18.877C20.8769 18.8753 20.8797 18.8741 20.8821 18.8723C20.8875 18.8683 20.8922 18.8636 20.8973 18.8593C20.9014 18.8558 20.9056 18.8525 20.9095 18.8488C20.9187 18.8401 20.9272 18.8308 20.9352 18.821ZM12.3276 17.5379L10.8084 16.0394V12.4466L13.383 11.3794L14.9695 12.5592L15.2721 16.2789L12.3276 17.5379ZM10.8084 18.1876V16.8846L11.7298 17.7936L10.8084 18.1876ZM9.59938 10.9587C9.85585 11.1854 10.0638 11.3537 10.1919 11.4542V11.9227L7.72161 11.6411C7.60352 11.6278 7.48766 11.6801 7.4242 11.7761C7.36075 11.8719 7.36096 11.9941 7.42474 12.0898L10.1919 16.2433V17.661L6.09781 11.7347L6.14797 11.1178L6.19858 10.4954L9.59938 10.9587ZM11.9275 10.5091L14.7083 9.34563L14.9051 11.7664L13.6179 10.8092C13.5288 10.743 13.4089 10.7284 13.3052 10.7714L10.8097 11.8058V11.4841C10.9961 11.3395 11.4198 10.9984 11.9275 10.5091ZM15.4824 11.2618L15.4789 11.2182L19.8958 16.1046L20.179 17.5918L15.5661 12.2919L15.4824 11.2618ZM15.2413 8.2981L15.5775 8.47634L15.2616 8.54673L15.2413 8.2981ZM8.2932 12.2975L10.1919 12.5141V15.1474L8.2932 12.2975ZM6.02012 12.6902L9.66106 17.9606L5.7283 16.2788L6.02012 12.6902ZM15.6487 13.3066L19.6083 17.856L15.8893 16.2656L15.6487 13.3066ZM17.5556 9.52501L15.3787 9.9877L15.3097 9.13883L16.3783 8.90083L17.5556 9.52501ZM14.6184 8.24142L14.6578 8.72548L12.9207 9.45231C13.0932 9.24868 13.254 9.04614 13.4032 8.8447L14.6184 8.24142ZM10.5199 1.65254C12.5575 1.65254 14.2152 3.23128 14.2152 5.17182C14.2152 7.80517 11.2983 10.3243 10.5199 10.9494C9.74158 10.3242 6.82472 7.80513 6.82472 5.17182C6.82472 3.23128 8.48236 1.65254 10.5199 1.65254ZM8.28192 9.64126C8.47937 9.86586 8.67624 10.0746 8.86561 10.2656L6.24636 9.90868L6.38196 8.24142L7.65959 8.87571C7.8488 9.12911 8.05605 9.38434 8.28192 9.64126ZM5.75902 8.2981L5.67046 9.38719L5.62256 9.97618L1.91743 11.8359L2.23538 10.1662L5.75902 8.2981ZM1.58258 13.5944L1.77281 12.5954L1.77769 12.5696L5.56629 10.668L5.48819 11.6281L1.58258 13.5944Z" fill="black"/>
<path d="M12.4252 5.17171C12.4252 4.17132 11.5706 3.35742 10.5202 3.35742C10.35 3.35742 10.212 3.48883 10.212 3.65098C10.212 3.81312 10.35 3.94453 10.5202 3.94453C11.2307 3.94453 11.8087 4.49503 11.8087 5.17171C11.8087 5.84835 11.2307 6.39889 10.5202 6.39889C9.80969 6.39889 9.23166 5.84839 9.23166 5.17171C9.23166 4.848 9.36282 4.54257 9.60104 4.31164C9.72036 4.19601 9.71863 4.01015 9.59719 3.89656C9.47574 3.78293 9.28059 3.78453 9.16131 3.90023C8.80916 4.2416 8.61523 4.69316 8.61523 5.17171C8.61523 6.1721 9.46979 6.986 10.5202 6.986C11.5707 6.986 12.4252 6.17206 12.4252 5.17171Z" fill="black"/>
</g>
<defs>
<clipPath id="clip0">
<rect width="21" height="20" fill="white"/>
</clipPath>
</defs>
</svg>
