<svg width="26" height="26" viewBox="0 0 26 26" fill="none" xmlns="http://www.w3.org/2000/svg">
<path d="M23.2567 9.84019C23.652 8.77256 23.7662 7.7545 23.4822 6.84084C23.3514 6.85263 23.2157 6.85872 23.0768 6.85872C18.916 6.85872 11.562 1.62744 11.0055 0.8125C8.71218 4.15309 3.90543 6.72141 1.73281 9.60172C0.853681 10.7673 0.414118 11.6346 1.28877 12.9679L10.4493 24.7382C10.8625 25.2976 11.6721 25.3431 12.2486 24.8272C12.2486 24.8272 19.761 15.1873 25.1881 12.2046C24.7802 11.4079 24.1013 10.6129 23.2567 9.84019ZM10.2896 22.2438L10.2515 22.2702L10.2169 22.3003C10.0769 22.4259 9.95251 22.5679 9.84643 22.7232L1.90912 12.5251C1.33752 11.6407 1.49962 11.1751 2.34096 10.0604C3.29524 8.79572 4.82031 7.56803 6.43515 6.26844C8.11377 4.91725 9.84277 3.52625 11.1127 1.9435C13.209 3.66844 19.0724 7.47703 22.8663 7.61637C23.3213 12.0839 14.058 19.6154 10.2896 22.2438Z" fill="#F48546" fill-opacity="0.95"/>
<path d="M8.12207 5.75157L18.3616 13.775L18.7264 13.4484L8.38857 5.5127L8.12207 5.75157Z" fill="white" fill-opacity="0.95"/>
<path d="M11.4591 10.0226L7.26827 6.51587C7.26827 6.51587 5.80983 7.44699 4.04346 9.48921L7.76146 13.3332L11.4591 10.0226Z" fill="white" fill-opacity="0.95"/>
<path d="M2.27734 11.3994L10.1862 21.0929L11.6467 19.786L3.21456 10.1453C3.21456 10.1453 2.47966 10.543 2.27734 11.3994Z" fill="white" fill-opacity="0.95"/>
<path d="M11.1392 11.9552L15.7334 16.1274L17.1931 14.8205L12.4095 10.8181L11.1392 11.9552Z" fill="white" fill-opacity="0.95"/>
<path d="M8.59863 14.2296L12.8143 18.7406L14.2735 17.4341L9.86898 13.0925L8.59863 14.2296Z" fill="white" fill-opacity="0.95"/>
<path d="M11.3169 4.36978L10.6973 6.10934L11.0857 6.39209L13.0581 4.62612L12.6721 4.38318L11.3132 5.5999L11.9141 3.90421L11.5111 3.6499L9.63135 5.33259L9.96813 5.57756L11.3169 4.36978Z" fill="white" fill-opacity="0.95"/>
<path d="M13.005 7.7914L13.3812 7.45381L12.2336 6.63806L12.754 6.1725L13.7732 6.87043L14.1352 6.54584L13.1046 5.85765L13.5344 5.47334L14.6755 6.2115L15.046 5.8804L13.4682 4.88428L11.4702 6.673L13.005 7.7914Z" fill="white" fill-opacity="0.95"/>
<path d="M14.2274 8.68186L15.787 7.73733L16.2977 7.41395L15.9588 7.85189L14.9554 9.21324L15.4401 9.56627L18.4414 8.02292L17.8719 7.66339L16.2262 8.60508L15.8061 8.85939L16.088 8.48848L17.0634 7.15314L16.5158 6.80783L14.9944 7.75073L14.5902 8.00627L14.8685 7.65242L15.7898 6.34958L15.2763 6.02539L13.7891 8.36255L14.2274 8.68186Z" fill="white" fill-opacity="0.95"/>
<path d="M19.8686 8.81785C19.4994 8.58588 19.1545 8.47497 18.8319 8.48147C18.5118 8.48838 18.2493 8.58466 18.0426 8.76991C17.8155 8.97303 17.7391 9.18388 17.8138 9.40244C17.8577 9.53366 17.9975 9.72338 18.2359 9.97444L18.4825 10.2336C18.6296 10.3864 18.7242 10.5115 18.7657 10.6074C18.8063 10.7045 18.7864 10.7894 18.7064 10.8609C18.5695 10.9832 18.3911 11.0063 18.1721 10.9316C18.036 10.8799 17.9077 10.8095 17.7911 10.7223C17.5595 10.5574 17.447 10.3986 17.4498 10.2454C17.4515 10.1617 17.4974 10.0658 17.5871 9.95778L17.0546 9.58647C16.8145 9.80138 16.7235 10.0411 16.7836 10.3072C16.8441 10.5757 17.0501 10.8406 17.4076 11.1014C17.7639 11.3626 18.1185 11.5023 18.4671 11.5178C18.8193 11.5328 19.1094 11.4402 19.3328 11.2391C19.5522 11.0433 19.6302 10.8328 19.5676 10.609C19.5278 10.4656 19.4161 10.2986 19.2357 10.1085L18.8315 9.68194C18.6775 9.52106 18.5857 9.40935 18.5544 9.34556C18.5057 9.24847 18.5231 9.16275 18.6072 9.088C18.6986 9.00594 18.8156 8.97263 18.9586 8.98685C19.1037 9.00106 19.2548 9.05916 19.4128 9.16072C19.5562 9.25335 19.6574 9.34922 19.7139 9.44835C19.8012 9.59785 19.7768 9.74206 19.6428 9.87897L20.2428 10.2743C20.4922 10.0338 20.5702 9.77903 20.4772 9.51131C20.3862 9.24603 20.1827 9.01447 19.8686 8.81785Z" fill="white" fill-opacity="0.95"/>
</svg>
