<svg width="50" height="50" viewBox="0 0 50 50" fill="none" xmlns="http://www.w3.org/2000/svg">
<path d="M25 0C11.2144 0 0 11.2144 0 25C0 38.7856 11.2144 50 25 50C38.7856 50 50 38.7856 50 25C50 11.2144 38.7856 0 25 0Z" fill="#8E0BA5"/>
<path d="M35.9367 27.0832H27.0824V35.9375C27.0824 37.0876 26.1494 38.0207 24.9992 38.0207C23.8491 38.0207 22.916 37.0876 22.916 35.9375V27.0832H14.0617C12.9116 27.0832 11.9785 26.1501 11.9785 25C11.9785 23.8498 12.9116 22.9167 14.0617 22.9167H22.916V14.0625C22.916 12.9123 23.8491 11.9792 24.9992 11.9792C26.1494 11.9792 27.0824 12.9123 27.0824 14.0625V22.9167H35.9367C37.0869 22.9167 38.0199 23.8498 38.0199 25C38.0199 26.1501 37.0869 27.0832 35.9367 27.0832Z" fill="#FAFAFA"/>
</svg>
