<svg width="60" height="40" viewBox="0 0 60 40" fill="none" xmlns="http://www.w3.org/2000/svg">
<path d="M53.7168 40H6.28128C4.6199 40.0016 3.02571 39.3148 1.84824 38.0902C0.670763 36.8656 0.0061073 35.2031 0 33.4673V6.53275C0.0061073 4.7969 0.670763 3.13441 1.84824 1.9098C3.02571 0.68519 4.6199 -0.00160437 6.28128 2.81443e-06H53.7187C55.3801 -0.00160437 56.9743 0.68519 58.1518 1.9098C59.3292 3.13441 59.9939 4.7969 60 6.53275V33.4673C59.9939 35.2034 59.329 36.8662 58.1511 38.0909C56.9732 39.3156 55.3785 40.0021 53.7168 40ZM6.28128 2.00884C5.12951 2.00617 4.02376 2.48098 3.20663 3.32909C2.3895 4.1772 1.92773 5.32935 1.92265 6.53275V33.4673C1.92773 34.6707 2.3895 35.8228 3.20663 36.6709C4.02376 37.519 5.12951 37.9938 6.28128 37.9912H53.7187C56.122 37.9912 58.0774 35.9622 58.0774 33.4673V6.53275C58.0723 5.32935 57.6105 4.1772 56.7934 3.32909C55.9762 2.48098 54.8705 2.00617 53.7187 2.00884H6.28128Z" fill="#771699"/>
<path d="M13.7889 21.6774C12.1534 21.6758 10.5853 20.9964 9.42859 19.7882C8.27192 18.5801 7.62118 16.9419 7.61914 15.233C7.61914 11.6774 10.3858 8.78467 13.7889 8.78467C17.192 8.78467 19.9587 11.6774 19.9587 15.233C19.9566 16.9419 19.3059 18.5801 18.1492 19.7882C16.9926 20.9964 15.4244 21.6758 13.7889 21.6774V21.6774ZM13.7889 10.7935C12.6626 10.7951 11.583 11.2634 10.7867 12.0957C9.99053 12.928 9.5428 14.0563 9.54179 15.233C9.54179 17.6798 11.4471 19.6686 13.7889 19.6686C16.1307 19.6686 18.036 17.6798 18.036 15.233C18.036 12.7843 16.1307 10.7935 13.7889 10.7935Z" fill="#771699"/>
<path d="M23.689 31.3176H3.8915C3.63654 31.3176 3.39202 31.2118 3.21174 31.0234C3.03146 30.835 2.93018 30.5795 2.93018 30.3132V26.8037C3.14936 22.6796 6.15253 21.4361 7.70987 21.3477L19.8148 21.3457C21.4241 21.4361 24.4292 22.6796 24.6484 26.7455L24.6503 30.3111C24.6506 30.4432 24.6259 30.574 24.5777 30.6961C24.5295 30.8182 24.4587 30.9292 24.3694 31.0227C24.2801 31.1162 24.1741 31.1903 24.0573 31.2409C23.9405 31.2915 23.8154 31.3176 23.689 31.3176ZM4.85282 29.3087H22.7277V26.8037C22.5508 23.5514 19.8764 23.3606 19.7629 23.3525L7.76371 23.3545C7.53684 23.3746 5.02394 23.6478 4.8509 26.858L4.85282 29.3087V29.3087Z" fill="#771699"/>
<path d="M25.5923 9.67822H54.5012V11.6871H25.5923V9.67822Z" fill="#771699"/>
<path d="M25.5923 22.7661H54.5012V24.775H25.5923V22.7661Z" fill="#771699"/>
<path d="M25.5923 29.3086H54.5012V31.3174H25.5923V29.3086Z" fill="#771699"/>
<path d="M25.5923 16.2236H36.934V18.2325H25.5923V16.2236Z" fill="#771699"/>
<path d="M43.7578 16.2236H54.5035V18.2325H43.7578V16.2236Z" fill="#771699"/>
</svg>
